<mxfile host="Electron" agent="Mozilla/5.0 (Windows NT 10.0; Win64; x64) AppleWebKit/537.36 (KHTML, like Gecko) draw.io/26.2.2 Chrome/134.0.6998.178 Electron/35.1.2 Safari/537.36" version="26.2.2">
  <diagram name="Page-1" id="PwSASDq-akAxYnx5ry94">
    <mxGraphModel dx="604" dy="815" grid="1" gridSize="10" guides="1" tooltips="1" connect="1" arrows="1" fold="1" page="1" pageScale="1" pageWidth="850" pageHeight="1100" math="0" shadow="0">
      <root>
        <mxCell id="0" />
        <mxCell id="1" parent="0" />
        <mxCell id="qrhTBZqcDBaqj9OsFunk-2" value="Show" style="ellipse;shape=umlControl;whiteSpace=wrap;html=1;" vertex="1" parent="1">
          <mxGeometry x="390" y="370" width="70" height="80" as="geometry" />
        </mxCell>
        <mxCell id="qrhTBZqcDBaqj9OsFunk-4" value="Lost item Owner" style="shape=umlActor;verticalLabelPosition=bottom;verticalAlign=top;html=1;" vertex="1" parent="1">
          <mxGeometry x="35" y="240" width="30" height="60" as="geometry" />
        </mxCell>
        <mxCell id="qrhTBZqcDBaqj9OsFunk-5" value="Login screen" style="shape=umlBoundary;whiteSpace=wrap;html=1;" vertex="1" parent="1">
          <mxGeometry x="190" y="230" width="100" height="80" as="geometry" />
        </mxCell>
        <mxCell id="qrhTBZqcDBaqj9OsFunk-16" value="" style="edgeStyle=none;rounded=0;orthogonalLoop=1;jettySize=auto;html=1;" edge="1" parent="1" source="qrhTBZqcDBaqj9OsFunk-7">
          <mxGeometry relative="1" as="geometry">
            <mxPoint x="280" y="370" as="targetPoint" />
          </mxGeometry>
        </mxCell>
        <mxCell id="qrhTBZqcDBaqj9OsFunk-7" value="Credentials&lt;div&gt;check&lt;/div&gt;" style="ellipse;shape=umlControl;whiteSpace=wrap;html=1;" vertex="1" parent="1">
          <mxGeometry x="380" y="220" width="70" height="80" as="geometry" />
        </mxCell>
        <mxCell id="qrhTBZqcDBaqj9OsFunk-10" style="edgeStyle=none;rounded=0;orthogonalLoop=1;jettySize=auto;html=1;exitX=0.5;exitY=0.5;exitDx=0;exitDy=0;exitPerimeter=0;entryX=-0.04;entryY=0.525;entryDx=0;entryDy=0;entryPerimeter=0;" edge="1" parent="1" source="qrhTBZqcDBaqj9OsFunk-4" target="qrhTBZqcDBaqj9OsFunk-5">
          <mxGeometry relative="1" as="geometry" />
        </mxCell>
        <mxCell id="qrhTBZqcDBaqj9OsFunk-11" value="" style="endArrow=open;endFill=1;endSize=12;html=1;rounded=0;entryX=-0.029;entryY=0.615;entryDx=0;entryDy=0;entryPerimeter=0;" edge="1" parent="1" target="qrhTBZqcDBaqj9OsFunk-7">
          <mxGeometry width="160" relative="1" as="geometry">
            <mxPoint x="291" y="270" as="sourcePoint" />
            <mxPoint x="320" y="390" as="targetPoint" />
          </mxGeometry>
        </mxCell>
        <mxCell id="qrhTBZqcDBaqj9OsFunk-12" value="Types credentials" style="text;html=1;align=center;verticalAlign=middle;resizable=0;points=[];autosize=1;strokeColor=none;fillColor=none;" vertex="1" parent="1">
          <mxGeometry x="65" y="245" width="120" height="30" as="geometry" />
        </mxCell>
        <mxCell id="qrhTBZqcDBaqj9OsFunk-13" value="&lt;div&gt;&lt;span style=&quot;background-color: transparent; color: light-dark(rgb(0, 0, 0), rgb(255, 255, 255));&quot;&gt;Data Base&lt;/span&gt;&lt;/div&gt;" style="ellipse;shape=umlEntity;whiteSpace=wrap;html=1;" vertex="1" parent="1">
          <mxGeometry x="490" y="100" width="80" height="80" as="geometry" />
        </mxCell>
        <mxCell id="qrhTBZqcDBaqj9OsFunk-14" style="edgeStyle=none;rounded=0;orthogonalLoop=1;jettySize=auto;html=1;exitX=0;exitY=1;exitDx=0;exitDy=0;entryX=0.863;entryY=0.24;entryDx=0;entryDy=0;entryPerimeter=0;" edge="1" parent="1" source="qrhTBZqcDBaqj9OsFunk-13" target="qrhTBZqcDBaqj9OsFunk-7">
          <mxGeometry relative="1" as="geometry" />
        </mxCell>
        <mxCell id="qrhTBZqcDBaqj9OsFunk-21" value="" style="edgeStyle=none;rounded=0;orthogonalLoop=1;jettySize=auto;html=1;" edge="1" parent="1" source="qrhTBZqcDBaqj9OsFunk-17">
          <mxGeometry relative="1" as="geometry">
            <mxPoint x="390" y="410" as="targetPoint" />
          </mxGeometry>
        </mxCell>
        <mxCell id="qrhTBZqcDBaqj9OsFunk-17" value="Main menu" style="shape=umlBoundary;whiteSpace=wrap;html=1;" vertex="1" parent="1">
          <mxGeometry x="210" y="370" width="100" height="80" as="geometry" />
        </mxCell>
        <mxCell id="qrhTBZqcDBaqj9OsFunk-18" style="edgeStyle=none;rounded=0;orthogonalLoop=1;jettySize=auto;html=1;exitX=0.5;exitY=0.5;exitDx=0;exitDy=0;exitPerimeter=0;entryX=-0.036;entryY=0.52;entryDx=0;entryDy=0;entryPerimeter=0;" edge="1" parent="1" source="qrhTBZqcDBaqj9OsFunk-4" target="qrhTBZqcDBaqj9OsFunk-17">
          <mxGeometry relative="1" as="geometry" />
        </mxCell>
        <mxCell id="qrhTBZqcDBaqj9OsFunk-19" value="Submit Post ,LostItem" style="text;html=1;align=center;verticalAlign=middle;resizable=0;points=[];autosize=1;strokeColor=none;fillColor=none;rotation=45;" vertex="1" parent="1">
          <mxGeometry x="75" y="330" width="140" height="30" as="geometry" />
        </mxCell>
        <mxCell id="qrhTBZqcDBaqj9OsFunk-22" value="Create Post&lt;div&gt;screen&lt;/div&gt;" style="shape=umlBoundary;whiteSpace=wrap;html=1;" vertex="1" parent="1">
          <mxGeometry x="200" y="500" width="100" height="80" as="geometry" />
        </mxCell>
        <mxCell id="qrhTBZqcDBaqj9OsFunk-23" value="Add Post &#xa;Pressed" style="text;whiteSpace=wrap;html=1;" vertex="1" parent="1">
          <mxGeometry x="320" y="390" width="80" height="50" as="geometry" />
        </mxCell>
        <mxCell id="qrhTBZqcDBaqj9OsFunk-24" value="" style="endArrow=open;endFill=1;endSize=12;html=1;rounded=0;entryX=0.44;entryY=0.065;entryDx=0;entryDy=0;entryPerimeter=0;exitX=0.526;exitY=0.985;exitDx=0;exitDy=0;exitPerimeter=0;" edge="1" parent="1" source="qrhTBZqcDBaqj9OsFunk-2" target="qrhTBZqcDBaqj9OsFunk-22">
          <mxGeometry width="160" relative="1" as="geometry">
            <mxPoint x="240" y="560" as="sourcePoint" />
            <mxPoint x="400" y="560" as="targetPoint" />
          </mxGeometry>
        </mxCell>
        <mxCell id="qrhTBZqcDBaqj9OsFunk-26" style="edgeStyle=none;rounded=0;orthogonalLoop=1;jettySize=auto;html=1;exitX=0.5;exitY=0.5;exitDx=0;exitDy=0;exitPerimeter=0;entryX=-0.017;entryY=0.528;entryDx=0;entryDy=0;entryPerimeter=0;" edge="1" parent="1" source="qrhTBZqcDBaqj9OsFunk-4" target="qrhTBZqcDBaqj9OsFunk-22">
          <mxGeometry relative="1" as="geometry" />
        </mxCell>
        <mxCell id="qrhTBZqcDBaqj9OsFunk-27" value="Fills Item Form" style="text;html=1;align=center;verticalAlign=middle;resizable=0;points=[];autosize=1;strokeColor=none;fillColor=none;" vertex="1" parent="1">
          <mxGeometry x="50" y="440" width="100" height="30" as="geometry" />
        </mxCell>
        <mxCell id="qrhTBZqcDBaqj9OsFunk-28" value="" style="endArrow=open;endFill=1;endSize=12;html=1;rounded=0;exitX=1.035;exitY=0.56;exitDx=0;exitDy=0;exitPerimeter=0;" edge="1" parent="1" source="qrhTBZqcDBaqj9OsFunk-22">
          <mxGeometry width="160" relative="1" as="geometry">
            <mxPoint x="320" y="530" as="sourcePoint" />
            <mxPoint x="400" y="540" as="targetPoint" />
          </mxGeometry>
        </mxCell>
        <mxCell id="qrhTBZqcDBaqj9OsFunk-29" value="Submit&amp;nbsp;&lt;div&gt;Post&lt;/div&gt;" style="ellipse;shape=umlControl;whiteSpace=wrap;html=1;" vertex="1" parent="1">
          <mxGeometry x="540" y="490" width="70" height="80" as="geometry" />
        </mxCell>
        <mxCell id="qrhTBZqcDBaqj9OsFunk-30" value="Form Check" style="ellipse;shape=umlControl;whiteSpace=wrap;html=1;" vertex="1" parent="1">
          <mxGeometry x="400" y="500" width="70" height="80" as="geometry" />
        </mxCell>
        <mxCell id="qrhTBZqcDBaqj9OsFunk-31" value="" style="endArrow=open;endFill=1;endSize=12;html=1;rounded=0;entryX=0.014;entryY=0.58;entryDx=0;entryDy=0;entryPerimeter=0;exitX=1.028;exitY=0.486;exitDx=0;exitDy=0;exitPerimeter=0;" edge="1" parent="1" source="qrhTBZqcDBaqj9OsFunk-30" target="qrhTBZqcDBaqj9OsFunk-29">
          <mxGeometry width="160" relative="1" as="geometry">
            <mxPoint x="340" y="350" as="sourcePoint" />
            <mxPoint x="500" y="350" as="targetPoint" />
          </mxGeometry>
        </mxCell>
        <mxCell id="qrhTBZqcDBaqj9OsFunk-32" value="Correct" style="text;html=1;align=center;verticalAlign=middle;resizable=0;points=[];autosize=1;strokeColor=none;fillColor=none;" vertex="1" parent="1">
          <mxGeometry x="470" y="508" width="60" height="30" as="geometry" />
        </mxCell>
        <mxCell id="qrhTBZqcDBaqj9OsFunk-36" style="edgeStyle=none;rounded=0;orthogonalLoop=1;jettySize=auto;html=1;exitX=0.5;exitY=1;exitDx=0;exitDy=0;entryX=0.483;entryY=0.106;entryDx=0;entryDy=0;entryPerimeter=0;" edge="1" parent="1" source="qrhTBZqcDBaqj9OsFunk-13" target="qrhTBZqcDBaqj9OsFunk-29">
          <mxGeometry relative="1" as="geometry" />
        </mxCell>
        <mxCell id="qrhTBZqcDBaqj9OsFunk-38" value="" style="endArrow=open;endFill=1;endSize=12;html=1;rounded=0;exitX=0.143;exitY=0.25;exitDx=0;exitDy=0;exitPerimeter=0;fillColor=#f8cecc;strokeColor=#b85450;" edge="1" parent="1" source="qrhTBZqcDBaqj9OsFunk-7">
          <mxGeometry width="160" relative="1" as="geometry">
            <mxPoint x="340" y="350" as="sourcePoint" />
            <mxPoint x="330" y="180" as="targetPoint" />
          </mxGeometry>
        </mxCell>
        <mxCell id="qrhTBZqcDBaqj9OsFunk-39" value="Error&amp;nbsp;Popup message&lt;div&gt;screen&lt;/div&gt;" style="shape=umlBoundary;whiteSpace=wrap;html=1;fillColor=#f8cecc;strokeColor=#b85450;" vertex="1" parent="1">
          <mxGeometry x="270" y="100" width="100" height="80" as="geometry" />
        </mxCell>
        <mxCell id="qrhTBZqcDBaqj9OsFunk-40" value="" style="endArrow=open;endFill=1;endSize=12;html=1;rounded=0;exitX=0.3;exitY=0.875;exitDx=0;exitDy=0;exitPerimeter=0;fillColor=#f8cecc;strokeColor=#b85450;" edge="1" parent="1" source="qrhTBZqcDBaqj9OsFunk-39">
          <mxGeometry width="160" relative="1" as="geometry">
            <mxPoint x="400" y="250" as="sourcePoint" />
            <mxPoint x="230" y="180" as="targetPoint" />
          </mxGeometry>
        </mxCell>
        <mxCell id="qrhTBZqcDBaqj9OsFunk-41" value="Wrong Credentials" style="text;html=1;align=center;verticalAlign=middle;resizable=0;points=[];autosize=1;strokeColor=none;fillColor=none;" vertex="1" parent="1">
          <mxGeometry x="290" y="180" width="120" height="30" as="geometry" />
        </mxCell>
        <mxCell id="qrhTBZqcDBaqj9OsFunk-42" value="" style="endArrow=open;endFill=1;endSize=12;html=1;rounded=0;exitX=0.426;exitY=1.013;exitDx=0;exitDy=0;exitPerimeter=0;fillColor=#f8cecc;strokeColor=#b85450;" edge="1" parent="1" source="qrhTBZqcDBaqj9OsFunk-30">
          <mxGeometry width="160" relative="1" as="geometry">
            <mxPoint x="400" y="250" as="sourcePoint" />
            <mxPoint x="370" y="620" as="targetPoint" />
          </mxGeometry>
        </mxCell>
        <mxCell id="qrhTBZqcDBaqj9OsFunk-43" value="Wrong" style="text;html=1;align=center;verticalAlign=middle;resizable=0;points=[];autosize=1;strokeColor=none;fillColor=none;" vertex="1" parent="1">
          <mxGeometry x="390" y="598" width="60" height="30" as="geometry" />
        </mxCell>
        <mxCell id="qrhTBZqcDBaqj9OsFunk-44" value="Error Popup message&lt;div&gt;screen&lt;/div&gt;" style="shape=umlBoundary;whiteSpace=wrap;html=1;fillColor=#f8cecc;strokeColor=#b85450;" vertex="1" parent="1">
          <mxGeometry x="270" y="598" width="100" height="80" as="geometry" />
        </mxCell>
        <mxCell id="qrhTBZqcDBaqj9OsFunk-45" value="" style="endArrow=open;endFill=1;endSize=12;html=1;rounded=0;exitX=-0.035;exitY=0.451;exitDx=0;exitDy=0;exitPerimeter=0;fillColor=#f8cecc;strokeColor=#b85450;entryX=1.04;entryY=0.461;entryDx=0;entryDy=0;entryPerimeter=0;" edge="1" parent="1" source="qrhTBZqcDBaqj9OsFunk-44" target="qrhTBZqcDBaqj9OsFunk-48">
          <mxGeometry width="160" relative="1" as="geometry">
            <mxPoint x="440" y="591" as="sourcePoint" />
            <mxPoint x="380" y="630" as="targetPoint" />
          </mxGeometry>
        </mxCell>
        <mxCell id="qrhTBZqcDBaqj9OsFunk-46" value="1." style="text;html=1;align=center;verticalAlign=middle;resizable=0;points=[];autosize=1;strokeColor=none;fillColor=none;" vertex="1" parent="1">
          <mxGeometry x="45" y="38" width="30" height="30" as="geometry" />
        </mxCell>
        <mxCell id="qrhTBZqcDBaqj9OsFunk-47" value="Show" style="ellipse;shape=umlControl;whiteSpace=wrap;html=1;fillColor=#f8cecc;strokeColor=#b85450;" vertex="1" parent="1">
          <mxGeometry x="160" y="140" width="70" height="80" as="geometry" />
        </mxCell>
        <mxCell id="qrhTBZqcDBaqj9OsFunk-48" value="Show" style="ellipse;shape=umlControl;whiteSpace=wrap;html=1;fillColor=#f8cecc;strokeColor=#b85450;" vertex="1" parent="1">
          <mxGeometry x="160" y="598" width="70" height="80" as="geometry" />
        </mxCell>
        <mxCell id="qrhTBZqcDBaqj9OsFunk-50" value="" style="endArrow=open;endFill=1;endSize=12;html=1;rounded=0;exitX=0.823;exitY=0.198;exitDx=0;exitDy=0;exitPerimeter=0;fillColor=#f8cecc;strokeColor=#b85450;entryX=0.564;entryY=1.002;entryDx=0;entryDy=0;entryPerimeter=0;" edge="1" parent="1" source="qrhTBZqcDBaqj9OsFunk-48" target="qrhTBZqcDBaqj9OsFunk-22">
          <mxGeometry width="160" relative="1" as="geometry">
            <mxPoint x="440" y="591" as="sourcePoint" />
            <mxPoint x="380" y="630" as="targetPoint" />
          </mxGeometry>
        </mxCell>
        <mxCell id="qrhTBZqcDBaqj9OsFunk-51" value="" style="endArrow=open;endFill=1;endSize=12;html=1;rounded=0;exitX=0.871;exitY=0.944;exitDx=0;exitDy=0;exitPerimeter=0;fillColor=#f8cecc;strokeColor=#b85450;entryX=0.512;entryY=-0.023;entryDx=0;entryDy=0;entryPerimeter=0;" edge="1" parent="1" source="qrhTBZqcDBaqj9OsFunk-47" target="qrhTBZqcDBaqj9OsFunk-5">
          <mxGeometry width="160" relative="1" as="geometry">
            <mxPoint x="310" y="180" as="sourcePoint" />
            <mxPoint x="240" y="190" as="targetPoint" />
          </mxGeometry>
        </mxCell>
        <mxCell id="qrhTBZqcDBaqj9OsFunk-166" style="edgeStyle=none;rounded=0;orthogonalLoop=1;jettySize=auto;html=1;exitX=0.5;exitY=0.5;exitDx=0;exitDy=0;exitPerimeter=0;entryX=-0.025;entryY=0.394;entryDx=0;entryDy=0;entryPerimeter=0;" edge="1" parent="1" source="qrhTBZqcDBaqj9OsFunk-56" target="qrhTBZqcDBaqj9OsFunk-157">
          <mxGeometry relative="1" as="geometry" />
        </mxCell>
        <mxCell id="qrhTBZqcDBaqj9OsFunk-56" value="Moderator" style="shape=umlActor;verticalLabelPosition=bottom;verticalAlign=top;html=1;" vertex="1" parent="1">
          <mxGeometry x="115" y="3280" width="30" height="60" as="geometry" />
        </mxCell>
        <mxCell id="qrhTBZqcDBaqj9OsFunk-57" value="Login screen" style="shape=umlBoundary;whiteSpace=wrap;html=1;" vertex="1" parent="1">
          <mxGeometry x="270" y="3270" width="100" height="80" as="geometry" />
        </mxCell>
        <mxCell id="qrhTBZqcDBaqj9OsFunk-58" value="Credentials&lt;div&gt;check&lt;/div&gt;" style="ellipse;shape=umlControl;whiteSpace=wrap;html=1;" vertex="1" parent="1">
          <mxGeometry x="460" y="3260" width="70" height="80" as="geometry" />
        </mxCell>
        <mxCell id="qrhTBZqcDBaqj9OsFunk-59" style="edgeStyle=none;rounded=0;orthogonalLoop=1;jettySize=auto;html=1;exitX=0.5;exitY=0.5;exitDx=0;exitDy=0;exitPerimeter=0;entryX=-0.04;entryY=0.525;entryDx=0;entryDy=0;entryPerimeter=0;" edge="1" parent="1" source="qrhTBZqcDBaqj9OsFunk-56" target="qrhTBZqcDBaqj9OsFunk-57">
          <mxGeometry relative="1" as="geometry" />
        </mxCell>
        <mxCell id="qrhTBZqcDBaqj9OsFunk-60" value="" style="endArrow=open;endFill=1;endSize=12;html=1;rounded=0;entryX=-0.029;entryY=0.615;entryDx=0;entryDy=0;entryPerimeter=0;" edge="1" parent="1" target="qrhTBZqcDBaqj9OsFunk-58">
          <mxGeometry width="160" relative="1" as="geometry">
            <mxPoint x="371" y="3310" as="sourcePoint" />
            <mxPoint x="400" y="3430" as="targetPoint" />
          </mxGeometry>
        </mxCell>
        <mxCell id="qrhTBZqcDBaqj9OsFunk-61" value="Types credentials" style="text;html=1;align=center;verticalAlign=middle;resizable=0;points=[];autosize=1;strokeColor=none;fillColor=none;" vertex="1" parent="1">
          <mxGeometry x="145" y="3285" width="120" height="30" as="geometry" />
        </mxCell>
        <mxCell id="qrhTBZqcDBaqj9OsFunk-62" value="&lt;div&gt;&lt;span style=&quot;background-color: transparent; color: light-dark(rgb(0, 0, 0), rgb(255, 255, 255));&quot;&gt;Data Base&lt;/span&gt;&lt;/div&gt;" style="ellipse;shape=umlEntity;whiteSpace=wrap;html=1;" vertex="1" parent="1">
          <mxGeometry x="570" y="3140" width="80" height="80" as="geometry" />
        </mxCell>
        <mxCell id="qrhTBZqcDBaqj9OsFunk-63" style="edgeStyle=none;rounded=0;orthogonalLoop=1;jettySize=auto;html=1;exitX=0;exitY=1;exitDx=0;exitDy=0;entryX=0.863;entryY=0.24;entryDx=0;entryDy=0;entryPerimeter=0;" edge="1" parent="1" source="qrhTBZqcDBaqj9OsFunk-62" target="qrhTBZqcDBaqj9OsFunk-58">
          <mxGeometry relative="1" as="geometry" />
        </mxCell>
        <mxCell id="qrhTBZqcDBaqj9OsFunk-64" value="" style="endArrow=open;endFill=1;endSize=12;html=1;rounded=0;exitX=0.143;exitY=0.25;exitDx=0;exitDy=0;exitPerimeter=0;fillColor=#f8cecc;strokeColor=#b85450;" edge="1" parent="1" source="qrhTBZqcDBaqj9OsFunk-58">
          <mxGeometry width="160" relative="1" as="geometry">
            <mxPoint x="420" y="3390" as="sourcePoint" />
            <mxPoint x="410" y="3220" as="targetPoint" />
          </mxGeometry>
        </mxCell>
        <mxCell id="qrhTBZqcDBaqj9OsFunk-65" value="Error&amp;nbsp;Popup message&lt;div&gt;screen&lt;/div&gt;" style="shape=umlBoundary;whiteSpace=wrap;html=1;fillColor=#f8cecc;strokeColor=#b85450;" vertex="1" parent="1">
          <mxGeometry x="350" y="3140" width="100" height="80" as="geometry" />
        </mxCell>
        <mxCell id="qrhTBZqcDBaqj9OsFunk-66" value="" style="endArrow=open;endFill=1;endSize=12;html=1;rounded=0;exitX=0.3;exitY=0.875;exitDx=0;exitDy=0;exitPerimeter=0;fillColor=#f8cecc;strokeColor=#b85450;" edge="1" parent="1" source="qrhTBZqcDBaqj9OsFunk-65">
          <mxGeometry width="160" relative="1" as="geometry">
            <mxPoint x="480" y="3290" as="sourcePoint" />
            <mxPoint x="310" y="3220" as="targetPoint" />
          </mxGeometry>
        </mxCell>
        <mxCell id="qrhTBZqcDBaqj9OsFunk-67" value="Wrong Credentials" style="text;html=1;align=center;verticalAlign=middle;resizable=0;points=[];autosize=1;strokeColor=none;fillColor=none;" vertex="1" parent="1">
          <mxGeometry x="370" y="3220" width="120" height="30" as="geometry" />
        </mxCell>
        <mxCell id="qrhTBZqcDBaqj9OsFunk-68" value="Show" style="ellipse;shape=umlControl;whiteSpace=wrap;html=1;fillColor=#f8cecc;strokeColor=#b85450;" vertex="1" parent="1">
          <mxGeometry x="240" y="3180" width="70" height="80" as="geometry" />
        </mxCell>
        <mxCell id="qrhTBZqcDBaqj9OsFunk-69" value="" style="endArrow=open;endFill=1;endSize=12;html=1;rounded=0;exitX=0.871;exitY=0.944;exitDx=0;exitDy=0;exitPerimeter=0;fillColor=#f8cecc;strokeColor=#b85450;entryX=0.512;entryY=-0.023;entryDx=0;entryDy=0;entryPerimeter=0;" edge="1" parent="1" source="qrhTBZqcDBaqj9OsFunk-68" target="qrhTBZqcDBaqj9OsFunk-57">
          <mxGeometry width="160" relative="1" as="geometry">
            <mxPoint x="390" y="3220" as="sourcePoint" />
            <mxPoint x="320" y="3230" as="targetPoint" />
          </mxGeometry>
        </mxCell>
        <mxCell id="qrhTBZqcDBaqj9OsFunk-80" value="" style="edgeStyle=none;rounded=0;orthogonalLoop=1;jettySize=auto;html=1;" edge="1" parent="1" source="qrhTBZqcDBaqj9OsFunk-72">
          <mxGeometry relative="1" as="geometry">
            <mxPoint x="374.8004655776747" y="3539.022040678874" as="targetPoint" />
          </mxGeometry>
        </mxCell>
        <mxCell id="qrhTBZqcDBaqj9OsFunk-72" value="Show" style="ellipse;shape=umlControl;whiteSpace=wrap;html=1;" vertex="1" parent="1">
          <mxGeometry x="470" y="3407" width="70" height="80" as="geometry" />
        </mxCell>
        <mxCell id="qrhTBZqcDBaqj9OsFunk-73" value="" style="edgeStyle=none;rounded=0;orthogonalLoop=1;jettySize=auto;html=1;" edge="1" parent="1">
          <mxGeometry relative="1" as="geometry">
            <mxPoint x="466" y="3320" as="sourcePoint" />
            <mxPoint x="360" y="3407" as="targetPoint" />
          </mxGeometry>
        </mxCell>
        <mxCell id="qrhTBZqcDBaqj9OsFunk-74" value="" style="edgeStyle=none;rounded=0;orthogonalLoop=1;jettySize=auto;html=1;" edge="1" parent="1" source="qrhTBZqcDBaqj9OsFunk-75">
          <mxGeometry relative="1" as="geometry">
            <mxPoint x="470" y="3447" as="targetPoint" />
          </mxGeometry>
        </mxCell>
        <mxCell id="qrhTBZqcDBaqj9OsFunk-75" value="Moderator menu&lt;div&gt;screen&lt;/div&gt;" style="shape=umlBoundary;whiteSpace=wrap;html=1;" vertex="1" parent="1">
          <mxGeometry x="290" y="3407" width="100" height="80" as="geometry" />
        </mxCell>
        <mxCell id="qrhTBZqcDBaqj9OsFunk-78" style="edgeStyle=none;rounded=0;orthogonalLoop=1;jettySize=auto;html=1;exitX=0.5;exitY=0.5;exitDx=0;exitDy=0;exitPerimeter=0;entryX=-0.025;entryY=0.532;entryDx=0;entryDy=0;entryPerimeter=0;" edge="1" parent="1" source="qrhTBZqcDBaqj9OsFunk-56" target="qrhTBZqcDBaqj9OsFunk-75">
          <mxGeometry relative="1" as="geometry" />
        </mxCell>
        <mxCell id="qrhTBZqcDBaqj9OsFunk-86" value="" style="edgeStyle=none;rounded=0;orthogonalLoop=1;jettySize=auto;html=1;" edge="1" parent="1" source="qrhTBZqcDBaqj9OsFunk-81">
          <mxGeometry relative="1" as="geometry">
            <mxPoint x="470" y="3570" as="targetPoint" />
          </mxGeometry>
        </mxCell>
        <mxCell id="qrhTBZqcDBaqj9OsFunk-81" value="Report menu&lt;div&gt;screen&lt;/div&gt;" style="shape=umlBoundary;whiteSpace=wrap;html=1;" vertex="1" parent="1">
          <mxGeometry x="290" y="3530" width="100" height="80" as="geometry" />
        </mxCell>
        <mxCell id="qrhTBZqcDBaqj9OsFunk-82" style="edgeStyle=none;rounded=0;orthogonalLoop=1;jettySize=auto;html=1;exitX=0.5;exitY=0.5;exitDx=0;exitDy=0;exitPerimeter=0;entryX=-0.025;entryY=0.52;entryDx=0;entryDy=0;entryPerimeter=0;" edge="1" parent="1" source="qrhTBZqcDBaqj9OsFunk-56" target="qrhTBZqcDBaqj9OsFunk-81">
          <mxGeometry relative="1" as="geometry" />
        </mxCell>
        <mxCell id="qrhTBZqcDBaqj9OsFunk-83" value="Report List" style="text;html=1;align=center;verticalAlign=middle;resizable=0;points=[];autosize=1;strokeColor=none;fillColor=none;" vertex="1" parent="1">
          <mxGeometry x="200" y="3360" width="80" height="30" as="geometry" />
        </mxCell>
        <mxCell id="qrhTBZqcDBaqj9OsFunk-100" value="" style="edgeStyle=none;rounded=0;orthogonalLoop=1;jettySize=auto;html=1;fillColor=#f8cecc;strokeColor=#b85450;exitX=0.985;exitY=0.225;exitDx=0;exitDy=0;exitPerimeter=0;" edge="1" parent="1" source="qrhTBZqcDBaqj9OsFunk-157" target="qrhTBZqcDBaqj9OsFunk-99">
          <mxGeometry relative="1" as="geometry" />
        </mxCell>
        <mxCell id="qrhTBZqcDBaqj9OsFunk-87" value="Show" style="ellipse;shape=umlControl;whiteSpace=wrap;html=1;" vertex="1" parent="1">
          <mxGeometry x="470" y="3530" width="70" height="80" as="geometry" />
        </mxCell>
        <mxCell id="qrhTBZqcDBaqj9OsFunk-88" value="Checks reports" style="text;html=1;align=center;verticalAlign=middle;resizable=0;points=[];autosize=1;strokeColor=none;fillColor=none;" vertex="1" parent="1">
          <mxGeometry x="220" y="3490" width="100" height="30" as="geometry" />
        </mxCell>
        <mxCell id="qrhTBZqcDBaqj9OsFunk-91" value="Block User" style="ellipse;shape=umlControl;whiteSpace=wrap;html=1;" vertex="1" parent="1">
          <mxGeometry x="690" y="3610" width="70" height="80" as="geometry" />
        </mxCell>
        <mxCell id="qrhTBZqcDBaqj9OsFunk-98" value="Approved Report" style="text;html=1;align=center;verticalAlign=middle;resizable=0;points=[];autosize=1;strokeColor=none;fillColor=none;" vertex="1" parent="1">
          <mxGeometry x="470" y="3685" width="110" height="30" as="geometry" />
        </mxCell>
        <mxCell id="qrhTBZqcDBaqj9OsFunk-99" value="Delete report" style="ellipse;shape=umlControl;whiteSpace=wrap;html=1;fillColor=#f8cecc;strokeColor=#b85450;" vertex="1" parent="1">
          <mxGeometry x="590" y="3560" width="70" height="80" as="geometry" />
        </mxCell>
        <mxCell id="qrhTBZqcDBaqj9OsFunk-101" value="Moderator" style="shape=umlActor;verticalLabelPosition=bottom;verticalAlign=top;html=1;" vertex="1" parent="1">
          <mxGeometry x="100" y="4080" width="30" height="60" as="geometry" />
        </mxCell>
        <mxCell id="qrhTBZqcDBaqj9OsFunk-102" value="Login screen" style="shape=umlBoundary;whiteSpace=wrap;html=1;" vertex="1" parent="1">
          <mxGeometry x="300" y="4020" width="100" height="80" as="geometry" />
        </mxCell>
        <mxCell id="qrhTBZqcDBaqj9OsFunk-103" value="Credentials&lt;div&gt;check&lt;/div&gt;" style="ellipse;shape=umlControl;whiteSpace=wrap;html=1;" vertex="1" parent="1">
          <mxGeometry x="490" y="4010" width="70" height="80" as="geometry" />
        </mxCell>
        <mxCell id="qrhTBZqcDBaqj9OsFunk-104" style="edgeStyle=none;rounded=0;orthogonalLoop=1;jettySize=auto;html=1;exitX=0.5;exitY=0.5;exitDx=0;exitDy=0;exitPerimeter=0;entryX=-0.04;entryY=0.525;entryDx=0;entryDy=0;entryPerimeter=0;" edge="1" parent="1" source="qrhTBZqcDBaqj9OsFunk-101" target="qrhTBZqcDBaqj9OsFunk-102">
          <mxGeometry relative="1" as="geometry" />
        </mxCell>
        <mxCell id="qrhTBZqcDBaqj9OsFunk-105" value="" style="endArrow=open;endFill=1;endSize=12;html=1;rounded=0;entryX=-0.029;entryY=0.615;entryDx=0;entryDy=0;entryPerimeter=0;" edge="1" parent="1" target="qrhTBZqcDBaqj9OsFunk-103">
          <mxGeometry width="160" relative="1" as="geometry">
            <mxPoint x="401" y="4060" as="sourcePoint" />
            <mxPoint x="430" y="4180" as="targetPoint" />
          </mxGeometry>
        </mxCell>
        <mxCell id="qrhTBZqcDBaqj9OsFunk-106" value="Types credentials" style="text;html=1;align=center;verticalAlign=middle;resizable=0;points=[];autosize=1;strokeColor=none;fillColor=none;" vertex="1" parent="1">
          <mxGeometry x="175" y="4035" width="120" height="30" as="geometry" />
        </mxCell>
        <mxCell id="qrhTBZqcDBaqj9OsFunk-107" value="&lt;div&gt;&lt;span style=&quot;background-color: transparent; color: light-dark(rgb(0, 0, 0), rgb(255, 255, 255));&quot;&gt;Data Base&lt;/span&gt;&lt;/div&gt;" style="ellipse;shape=umlEntity;whiteSpace=wrap;html=1;" vertex="1" parent="1">
          <mxGeometry x="600" y="3890" width="80" height="80" as="geometry" />
        </mxCell>
        <mxCell id="qrhTBZqcDBaqj9OsFunk-108" style="edgeStyle=none;rounded=0;orthogonalLoop=1;jettySize=auto;html=1;exitX=0;exitY=1;exitDx=0;exitDy=0;entryX=0.863;entryY=0.24;entryDx=0;entryDy=0;entryPerimeter=0;" edge="1" parent="1" source="qrhTBZqcDBaqj9OsFunk-107" target="qrhTBZqcDBaqj9OsFunk-103">
          <mxGeometry relative="1" as="geometry" />
        </mxCell>
        <mxCell id="qrhTBZqcDBaqj9OsFunk-109" value="" style="endArrow=open;endFill=1;endSize=12;html=1;rounded=0;exitX=0.143;exitY=0.25;exitDx=0;exitDy=0;exitPerimeter=0;fillColor=#f8cecc;strokeColor=#b85450;" edge="1" parent="1" source="qrhTBZqcDBaqj9OsFunk-103">
          <mxGeometry width="160" relative="1" as="geometry">
            <mxPoint x="450" y="4140" as="sourcePoint" />
            <mxPoint x="440" y="3970" as="targetPoint" />
          </mxGeometry>
        </mxCell>
        <mxCell id="qrhTBZqcDBaqj9OsFunk-110" value="Error&amp;nbsp;Popup message&lt;div&gt;screen&lt;/div&gt;" style="shape=umlBoundary;whiteSpace=wrap;html=1;fillColor=#f8cecc;strokeColor=#b85450;" vertex="1" parent="1">
          <mxGeometry x="380" y="3890" width="100" height="80" as="geometry" />
        </mxCell>
        <mxCell id="qrhTBZqcDBaqj9OsFunk-111" value="" style="endArrow=open;endFill=1;endSize=12;html=1;rounded=0;exitX=0.3;exitY=0.875;exitDx=0;exitDy=0;exitPerimeter=0;fillColor=#f8cecc;strokeColor=#b85450;" edge="1" parent="1" source="qrhTBZqcDBaqj9OsFunk-110">
          <mxGeometry width="160" relative="1" as="geometry">
            <mxPoint x="510" y="4040" as="sourcePoint" />
            <mxPoint x="340" y="3970" as="targetPoint" />
          </mxGeometry>
        </mxCell>
        <mxCell id="qrhTBZqcDBaqj9OsFunk-112" value="Wrong Credentials" style="text;html=1;align=center;verticalAlign=middle;resizable=0;points=[];autosize=1;strokeColor=none;fillColor=none;" vertex="1" parent="1">
          <mxGeometry x="400" y="3970" width="120" height="30" as="geometry" />
        </mxCell>
        <mxCell id="qrhTBZqcDBaqj9OsFunk-113" value="Show" style="ellipse;shape=umlControl;whiteSpace=wrap;html=1;fillColor=#f8cecc;strokeColor=#b85450;" vertex="1" parent="1">
          <mxGeometry x="270" y="3930" width="70" height="80" as="geometry" />
        </mxCell>
        <mxCell id="qrhTBZqcDBaqj9OsFunk-114" value="" style="endArrow=open;endFill=1;endSize=12;html=1;rounded=0;exitX=0.871;exitY=0.944;exitDx=0;exitDy=0;exitPerimeter=0;fillColor=#f8cecc;strokeColor=#b85450;entryX=0.512;entryY=-0.023;entryDx=0;entryDy=0;entryPerimeter=0;" edge="1" parent="1" source="qrhTBZqcDBaqj9OsFunk-113" target="qrhTBZqcDBaqj9OsFunk-102">
          <mxGeometry width="160" relative="1" as="geometry">
            <mxPoint x="420" y="3970" as="sourcePoint" />
            <mxPoint x="350" y="3980" as="targetPoint" />
          </mxGeometry>
        </mxCell>
        <mxCell id="qrhTBZqcDBaqj9OsFunk-123" value="" style="edgeStyle=none;rounded=0;orthogonalLoop=1;jettySize=auto;html=1;" edge="1" parent="1" source="qrhTBZqcDBaqj9OsFunk-115">
          <mxGeometry relative="1" as="geometry">
            <mxPoint x="404.0355711666791" y="4297.6649452564" as="targetPoint" />
          </mxGeometry>
        </mxCell>
        <mxCell id="qrhTBZqcDBaqj9OsFunk-115" value="Show" style="ellipse;shape=umlControl;whiteSpace=wrap;html=1;" vertex="1" parent="1">
          <mxGeometry x="500" y="4157" width="70" height="80" as="geometry" />
        </mxCell>
        <mxCell id="qrhTBZqcDBaqj9OsFunk-116" value="" style="edgeStyle=none;rounded=0;orthogonalLoop=1;jettySize=auto;html=1;" edge="1" parent="1">
          <mxGeometry relative="1" as="geometry">
            <mxPoint x="496" y="4070" as="sourcePoint" />
            <mxPoint x="390" y="4157" as="targetPoint" />
          </mxGeometry>
        </mxCell>
        <mxCell id="qrhTBZqcDBaqj9OsFunk-117" value="" style="edgeStyle=none;rounded=0;orthogonalLoop=1;jettySize=auto;html=1;" edge="1" parent="1" source="qrhTBZqcDBaqj9OsFunk-118">
          <mxGeometry relative="1" as="geometry">
            <mxPoint x="500" y="4197" as="targetPoint" />
          </mxGeometry>
        </mxCell>
        <mxCell id="qrhTBZqcDBaqj9OsFunk-118" value="Moderator menu" style="shape=umlBoundary;whiteSpace=wrap;html=1;" vertex="1" parent="1">
          <mxGeometry x="320" y="4157" width="100" height="80" as="geometry" />
        </mxCell>
        <mxCell id="qrhTBZqcDBaqj9OsFunk-119" style="edgeStyle=none;rounded=0;orthogonalLoop=1;jettySize=auto;html=1;exitX=0.5;exitY=0.5;exitDx=0;exitDy=0;exitPerimeter=0;entryX=-0.025;entryY=0.532;entryDx=0;entryDy=0;entryPerimeter=0;" edge="1" parent="1" source="qrhTBZqcDBaqj9OsFunk-101" target="qrhTBZqcDBaqj9OsFunk-118">
          <mxGeometry relative="1" as="geometry" />
        </mxCell>
        <mxCell id="qrhTBZqcDBaqj9OsFunk-120" value="Report List" style="text;html=1;align=center;verticalAlign=middle;resizable=0;points=[];autosize=1;strokeColor=none;fillColor=none;" vertex="1" parent="1">
          <mxGeometry x="215" y="4140" width="80" height="30" as="geometry" />
        </mxCell>
        <mxCell id="qrhTBZqcDBaqj9OsFunk-128" value="" style="edgeStyle=none;rounded=0;orthogonalLoop=1;jettySize=auto;html=1;" edge="1" parent="1" source="qrhTBZqcDBaqj9OsFunk-124">
          <mxGeometry relative="1" as="geometry">
            <mxPoint x="500" y="4330" as="targetPoint" />
          </mxGeometry>
        </mxCell>
        <mxCell id="qrhTBZqcDBaqj9OsFunk-124" value="User List&lt;div&gt;screen&lt;/div&gt;" style="shape=umlBoundary;whiteSpace=wrap;html=1;" vertex="1" parent="1">
          <mxGeometry x="320" y="4290" width="100" height="80" as="geometry" />
        </mxCell>
        <mxCell id="qrhTBZqcDBaqj9OsFunk-125" style="edgeStyle=none;rounded=0;orthogonalLoop=1;jettySize=auto;html=1;exitX=0.5;exitY=0.5;exitDx=0;exitDy=0;exitPerimeter=0;entryX=-0.032;entryY=0.472;entryDx=0;entryDy=0;entryPerimeter=0;" edge="1" parent="1" source="qrhTBZqcDBaqj9OsFunk-101" target="qrhTBZqcDBaqj9OsFunk-124">
          <mxGeometry relative="1" as="geometry" />
        </mxCell>
        <mxCell id="qrhTBZqcDBaqj9OsFunk-126" value="&amp;nbsp;Picks a User&amp;nbsp;" style="text;html=1;align=center;verticalAlign=middle;resizable=0;points=[];autosize=1;strokeColor=none;fillColor=none;" vertex="1" parent="1">
          <mxGeometry x="255" y="4260" width="100" height="30" as="geometry" />
        </mxCell>
        <mxCell id="qrhTBZqcDBaqj9OsFunk-131" value="" style="edgeStyle=none;rounded=0;orthogonalLoop=1;jettySize=auto;html=1;exitX=0.543;exitY=0.983;exitDx=0;exitDy=0;exitPerimeter=0;" edge="1" parent="1" source="qrhTBZqcDBaqj9OsFunk-129">
          <mxGeometry relative="1" as="geometry">
            <mxPoint x="570" y="4330" as="sourcePoint" />
            <mxPoint x="400" y="4410" as="targetPoint" />
          </mxGeometry>
        </mxCell>
        <mxCell id="qrhTBZqcDBaqj9OsFunk-129" value="Show&lt;div&gt;History&lt;/div&gt;" style="ellipse;shape=umlControl;whiteSpace=wrap;html=1;" vertex="1" parent="1">
          <mxGeometry x="500" y="4290" width="70" height="80" as="geometry" />
        </mxCell>
        <mxCell id="qrhTBZqcDBaqj9OsFunk-132" style="edgeStyle=none;rounded=0;orthogonalLoop=1;jettySize=auto;html=1;exitX=0.5;exitY=1;exitDx=0;exitDy=0;entryX=0.798;entryY=0.161;entryDx=0;entryDy=0;entryPerimeter=0;" edge="1" parent="1" source="qrhTBZqcDBaqj9OsFunk-107" target="qrhTBZqcDBaqj9OsFunk-129">
          <mxGeometry relative="1" as="geometry" />
        </mxCell>
        <mxCell id="qrhTBZqcDBaqj9OsFunk-133" value="8." style="text;html=1;align=center;verticalAlign=middle;resizable=0;points=[];autosize=1;strokeColor=none;fillColor=none;" vertex="1" parent="1">
          <mxGeometry x="115" y="3158" width="30" height="30" as="geometry" />
        </mxCell>
        <mxCell id="qrhTBZqcDBaqj9OsFunk-134" value="9." style="text;html=1;align=center;verticalAlign=middle;resizable=0;points=[];autosize=1;strokeColor=none;fillColor=none;" vertex="1" parent="1">
          <mxGeometry x="145" y="3888" width="30" height="30" as="geometry" />
        </mxCell>
        <mxCell id="qrhTBZqcDBaqj9OsFunk-143" value="" style="edgeStyle=none;rounded=0;orthogonalLoop=1;jettySize=auto;html=1;entryX=-0.043;entryY=0.619;entryDx=0;entryDy=0;entryPerimeter=0;" edge="1" parent="1">
          <mxGeometry relative="1" as="geometry">
            <mxPoint x="423.0100000000002" y="4442.4792957966565" as="sourcePoint" />
            <mxPoint x="564.9999999999998" y="4449.52" as="targetPoint" />
          </mxGeometry>
        </mxCell>
        <mxCell id="qrhTBZqcDBaqj9OsFunk-135" value="Profile&amp;nbsp;&lt;div&gt;History&amp;nbsp;&lt;/div&gt;&lt;div&gt;screen&lt;/div&gt;" style="shape=umlBoundary;whiteSpace=wrap;html=1;" vertex="1" parent="1">
          <mxGeometry x="320" y="4410" width="100" height="80" as="geometry" />
        </mxCell>
        <mxCell id="qrhTBZqcDBaqj9OsFunk-138" style="edgeStyle=none;rounded=0;orthogonalLoop=1;jettySize=auto;html=1;exitX=0.5;exitY=0.5;exitDx=0;exitDy=0;exitPerimeter=0;entryX=-0.024;entryY=0.464;entryDx=0;entryDy=0;entryPerimeter=0;" edge="1" parent="1" source="qrhTBZqcDBaqj9OsFunk-101" target="qrhTBZqcDBaqj9OsFunk-135">
          <mxGeometry relative="1" as="geometry" />
        </mxCell>
        <mxCell id="qrhTBZqcDBaqj9OsFunk-140" value="Disapprove report" style="text;html=1;align=center;verticalAlign=middle;resizable=0;points=[];autosize=1;fontColor=#FF0000;" vertex="1" parent="1">
          <mxGeometry x="455" y="3635" width="120" height="30" as="geometry" />
        </mxCell>
        <mxCell id="qrhTBZqcDBaqj9OsFunk-141" value="Judges profile history" style="text;html=1;align=center;verticalAlign=middle;resizable=0;points=[];autosize=1;strokeColor=none;fillColor=none;" vertex="1" parent="1">
          <mxGeometry x="120" y="4270" width="140" height="30" as="geometry" />
        </mxCell>
        <mxCell id="qrhTBZqcDBaqj9OsFunk-144" value="Deletes user" style="text;html=1;align=center;verticalAlign=middle;resizable=0;points=[];autosize=1;strokeColor=none;fillColor=none;" vertex="1" parent="1">
          <mxGeometry x="450" y="4425" width="90" height="30" as="geometry" />
        </mxCell>
        <mxCell id="qrhTBZqcDBaqj9OsFunk-145" style="edgeStyle=none;rounded=0;orthogonalLoop=1;jettySize=auto;html=1;exitX=0.5;exitY=1;exitDx=0;exitDy=0;entryX=0.556;entryY=0.15;entryDx=0;entryDy=0;entryPerimeter=0;" edge="1" parent="1" source="qrhTBZqcDBaqj9OsFunk-62" target="qrhTBZqcDBaqj9OsFunk-91">
          <mxGeometry relative="1" as="geometry" />
        </mxCell>
        <mxCell id="qrhTBZqcDBaqj9OsFunk-146" value="User deleted" style="ellipse;shape=umlControl;whiteSpace=wrap;html=1;" vertex="1" parent="1">
          <mxGeometry x="565" y="4400" width="70" height="80" as="geometry" />
        </mxCell>
        <mxCell id="qrhTBZqcDBaqj9OsFunk-148" style="edgeStyle=none;rounded=0;orthogonalLoop=1;jettySize=auto;html=1;exitX=1;exitY=1;exitDx=0;exitDy=0;entryX=0.567;entryY=0.086;entryDx=0;entryDy=0;entryPerimeter=0;" edge="1" parent="1" source="qrhTBZqcDBaqj9OsFunk-107" target="qrhTBZqcDBaqj9OsFunk-146">
          <mxGeometry relative="1" as="geometry" />
        </mxCell>
        <mxCell id="qrhTBZqcDBaqj9OsFunk-149" value="" style="edgeStyle=none;rounded=0;orthogonalLoop=1;jettySize=auto;html=1;fillColor=#f8cecc;strokeColor=#b85450;" edge="1" parent="1" target="qrhTBZqcDBaqj9OsFunk-150">
          <mxGeometry relative="1" as="geometry">
            <mxPoint x="385" y="4480" as="sourcePoint" />
          </mxGeometry>
        </mxCell>
        <mxCell id="qrhTBZqcDBaqj9OsFunk-150" value="Sends user to bottom of list&amp;nbsp;" style="ellipse;shape=umlControl;whiteSpace=wrap;html=1;fillColor=#f8cecc;strokeColor=#b85450;" vertex="1" parent="1">
          <mxGeometry x="270" y="4480" width="70" height="80" as="geometry" />
        </mxCell>
        <mxCell id="qrhTBZqcDBaqj9OsFunk-151" value="&lt;font style=&quot;color: rgb(255, 0, 0);&quot;&gt;Does not delete user&lt;/font&gt;" style="text;html=1;align=center;verticalAlign=middle;resizable=0;points=[];autosize=1;strokeColor=none;fillColor=none;" vertex="1" parent="1">
          <mxGeometry x="370" y="4490" width="130" height="30" as="geometry" />
        </mxCell>
        <mxCell id="qrhTBZqcDBaqj9OsFunk-152" value="Show" style="ellipse;shape=umlControl;whiteSpace=wrap;html=1;fillColor=#f8cecc;strokeColor=#b85450;" vertex="1" parent="1">
          <mxGeometry x="145" y="4410" width="70" height="80" as="geometry" />
        </mxCell>
        <mxCell id="qrhTBZqcDBaqj9OsFunk-153" value="" style="edgeStyle=none;rounded=0;orthogonalLoop=1;jettySize=auto;html=1;exitX=0.054;exitY=0.283;exitDx=0;exitDy=0;exitPerimeter=0;entryX=1.032;entryY=0.617;entryDx=0;entryDy=0;entryPerimeter=0;fillColor=#f8cecc;strokeColor=#b85450;" edge="1" parent="1" source="qrhTBZqcDBaqj9OsFunk-150" target="qrhTBZqcDBaqj9OsFunk-152">
          <mxGeometry relative="1" as="geometry">
            <mxPoint x="548" y="4379" as="sourcePoint" />
            <mxPoint x="410" y="4420" as="targetPoint" />
          </mxGeometry>
        </mxCell>
        <mxCell id="qrhTBZqcDBaqj9OsFunk-154" value="" style="edgeStyle=none;rounded=0;orthogonalLoop=1;jettySize=auto;html=1;entryX=0.376;entryY=0.983;entryDx=0;entryDy=0;entryPerimeter=0;fillColor=#f8cecc;strokeColor=#b85450;" edge="1" parent="1" source="qrhTBZqcDBaqj9OsFunk-152" target="qrhTBZqcDBaqj9OsFunk-124">
          <mxGeometry relative="1" as="geometry">
            <mxPoint x="558" y="4389" as="sourcePoint" />
            <mxPoint x="420" y="4430" as="targetPoint" />
          </mxGeometry>
        </mxCell>
        <mxCell id="qrhTBZqcDBaqj9OsFunk-155" value="" style="edgeStyle=none;rounded=0;orthogonalLoop=1;jettySize=auto;html=1;exitX=0.264;exitY=0.95;exitDx=0;exitDy=0;exitPerimeter=0;entryX=0.665;entryY=0.013;entryDx=0;entryDy=0;entryPerimeter=0;" edge="1" parent="1" source="qrhTBZqcDBaqj9OsFunk-87" target="qrhTBZqcDBaqj9OsFunk-157">
          <mxGeometry relative="1" as="geometry">
            <mxPoint x="493" y="3594.5" as="sourcePoint" />
            <mxPoint x="355" y="3635.5" as="targetPoint" />
          </mxGeometry>
        </mxCell>
        <mxCell id="qrhTBZqcDBaqj9OsFunk-169" value="" style="edgeStyle=none;rounded=0;orthogonalLoop=1;jettySize=auto;html=1;entryX=0.021;entryY=0.725;entryDx=0;entryDy=0;entryPerimeter=0;" edge="1" parent="1" source="qrhTBZqcDBaqj9OsFunk-157" target="qrhTBZqcDBaqj9OsFunk-91">
          <mxGeometry relative="1" as="geometry">
            <mxPoint x="470" y="3675.5" as="targetPoint" />
          </mxGeometry>
        </mxCell>
        <mxCell id="qrhTBZqcDBaqj9OsFunk-157" value="&lt;div&gt;Report&amp;nbsp;&lt;/div&gt;&lt;div&gt;screen&lt;/div&gt;" style="shape=umlBoundary;whiteSpace=wrap;html=1;" vertex="1" parent="1">
          <mxGeometry x="250" y="3690" width="100" height="80" as="geometry" />
        </mxCell>
        <mxCell id="qrhTBZqcDBaqj9OsFunk-163" value="Show" style="ellipse;shape=umlControl;whiteSpace=wrap;html=1;fillColor=#f8cecc;strokeColor=#b85450;" vertex="1" parent="1">
          <mxGeometry x="560" y="3445" width="70" height="80" as="geometry" />
        </mxCell>
        <mxCell id="qrhTBZqcDBaqj9OsFunk-164" value="" style="edgeStyle=none;rounded=0;orthogonalLoop=1;jettySize=auto;html=1;exitX=0.064;exitY=0.375;exitDx=0;exitDy=0;exitPerimeter=0;entryX=1.032;entryY=0.617;entryDx=0;entryDy=0;entryPerimeter=0;fillColor=#f8cecc;strokeColor=#b85450;" edge="1" parent="1" source="qrhTBZqcDBaqj9OsFunk-99" target="qrhTBZqcDBaqj9OsFunk-163">
          <mxGeometry relative="1" as="geometry">
            <mxPoint x="968" y="3604.5" as="sourcePoint" />
            <mxPoint x="830" y="3645.5" as="targetPoint" />
          </mxGeometry>
        </mxCell>
        <mxCell id="qrhTBZqcDBaqj9OsFunk-165" value="" style="edgeStyle=none;rounded=0;orthogonalLoop=1;jettySize=auto;html=1;entryX=1.005;entryY=0.338;entryDx=0;entryDy=0;entryPerimeter=0;fillColor=#f8cecc;strokeColor=#b85450;" edge="1" parent="1" source="qrhTBZqcDBaqj9OsFunk-163" target="qrhTBZqcDBaqj9OsFunk-81">
          <mxGeometry relative="1" as="geometry">
            <mxPoint x="1084" y="3604.5" as="sourcePoint" />
            <mxPoint x="884" y="3584.5" as="targetPoint" />
          </mxGeometry>
        </mxCell>
        <mxCell id="qrhTBZqcDBaqj9OsFunk-167" value="Judges Report" style="text;html=1;align=center;verticalAlign=middle;resizable=0;points=[];autosize=1;strokeColor=none;fillColor=none;" vertex="1" parent="1">
          <mxGeometry x="110" y="3470" width="100" height="30" as="geometry" />
        </mxCell>
        <mxCell id="qrhTBZqcDBaqj9OsFunk-261" value="5." style="text;html=1;align=center;verticalAlign=middle;resizable=0;points=[];autosize=1;strokeColor=none;fillColor=none;" vertex="1" parent="1">
          <mxGeometry x="30" y="1630" width="30" height="30" as="geometry" />
        </mxCell>
        <mxCell id="qrhTBZqcDBaqj9OsFunk-263" value="Show" style="ellipse;shape=umlControl;whiteSpace=wrap;html=1;" vertex="1" parent="1">
          <mxGeometry x="425" y="1880" width="70" height="80" as="geometry" />
        </mxCell>
        <mxCell id="qrhTBZqcDBaqj9OsFunk-264" value="Lost Item Owner" style="shape=umlActor;verticalLabelPosition=bottom;verticalAlign=top;html=1;" vertex="1" parent="1">
          <mxGeometry x="60" y="1910" width="30" height="60" as="geometry" />
        </mxCell>
        <mxCell id="qrhTBZqcDBaqj9OsFunk-265" value="Login screen" style="shape=umlBoundary;whiteSpace=wrap;html=1;" vertex="1" parent="1">
          <mxGeometry x="225" y="1740" width="100" height="80" as="geometry" />
        </mxCell>
        <mxCell id="qrhTBZqcDBaqj9OsFunk-266" value="" style="edgeStyle=none;rounded=0;orthogonalLoop=1;jettySize=auto;html=1;" edge="1" parent="1" source="qrhTBZqcDBaqj9OsFunk-267">
          <mxGeometry relative="1" as="geometry">
            <mxPoint x="315" y="1880" as="targetPoint" />
          </mxGeometry>
        </mxCell>
        <mxCell id="qrhTBZqcDBaqj9OsFunk-267" value="Credentials&lt;div&gt;check&lt;/div&gt;" style="ellipse;shape=umlControl;whiteSpace=wrap;html=1;" vertex="1" parent="1">
          <mxGeometry x="415" y="1730" width="70" height="80" as="geometry" />
        </mxCell>
        <mxCell id="qrhTBZqcDBaqj9OsFunk-268" style="edgeStyle=none;rounded=0;orthogonalLoop=1;jettySize=auto;html=1;exitX=0.5;exitY=0.5;exitDx=0;exitDy=0;exitPerimeter=0;entryX=-0.04;entryY=0.525;entryDx=0;entryDy=0;entryPerimeter=0;" edge="1" parent="1" source="qrhTBZqcDBaqj9OsFunk-264" target="qrhTBZqcDBaqj9OsFunk-265">
          <mxGeometry relative="1" as="geometry" />
        </mxCell>
        <mxCell id="qrhTBZqcDBaqj9OsFunk-269" value="" style="endArrow=open;endFill=1;endSize=12;html=1;rounded=0;entryX=-0.029;entryY=0.615;entryDx=0;entryDy=0;entryPerimeter=0;" edge="1" parent="1" target="qrhTBZqcDBaqj9OsFunk-267">
          <mxGeometry width="160" relative="1" as="geometry">
            <mxPoint x="326" y="1780" as="sourcePoint" />
            <mxPoint x="355" y="1900" as="targetPoint" />
          </mxGeometry>
        </mxCell>
        <mxCell id="qrhTBZqcDBaqj9OsFunk-270" value="Types credentials" style="text;html=1;align=center;verticalAlign=middle;resizable=0;points=[];autosize=1;strokeColor=none;fillColor=none;" vertex="1" parent="1">
          <mxGeometry x="80" y="1810" width="120" height="30" as="geometry" />
        </mxCell>
        <mxCell id="qrhTBZqcDBaqj9OsFunk-307" style="edgeStyle=none;rounded=0;orthogonalLoop=1;jettySize=auto;html=1;exitX=0.5;exitY=1;exitDx=0;exitDy=0;entryX=0.436;entryY=0.058;entryDx=0;entryDy=0;entryPerimeter=0;" edge="1" parent="1" source="qrhTBZqcDBaqj9OsFunk-271" target="qrhTBZqcDBaqj9OsFunk-308">
          <mxGeometry relative="1" as="geometry" />
        </mxCell>
        <mxCell id="qrhTBZqcDBaqj9OsFunk-271" value="&lt;div&gt;&lt;span style=&quot;background-color: transparent; color: light-dark(rgb(0, 0, 0), rgb(255, 255, 255));&quot;&gt;Data Base&lt;/span&gt;&lt;/div&gt;" style="ellipse;shape=umlEntity;whiteSpace=wrap;html=1;" vertex="1" parent="1">
          <mxGeometry x="525" y="1610" width="80" height="80" as="geometry" />
        </mxCell>
        <mxCell id="qrhTBZqcDBaqj9OsFunk-272" style="edgeStyle=none;rounded=0;orthogonalLoop=1;jettySize=auto;html=1;exitX=0;exitY=1;exitDx=0;exitDy=0;entryX=0.863;entryY=0.24;entryDx=0;entryDy=0;entryPerimeter=0;" edge="1" parent="1" source="qrhTBZqcDBaqj9OsFunk-271" target="qrhTBZqcDBaqj9OsFunk-267">
          <mxGeometry relative="1" as="geometry" />
        </mxCell>
        <mxCell id="qrhTBZqcDBaqj9OsFunk-273" value="" style="edgeStyle=none;rounded=0;orthogonalLoop=1;jettySize=auto;html=1;" edge="1" parent="1" source="qrhTBZqcDBaqj9OsFunk-274">
          <mxGeometry relative="1" as="geometry">
            <mxPoint x="425" y="1920" as="targetPoint" />
          </mxGeometry>
        </mxCell>
        <mxCell id="qrhTBZqcDBaqj9OsFunk-274" value="Main menu" style="shape=umlBoundary;whiteSpace=wrap;html=1;" vertex="1" parent="1">
          <mxGeometry x="245" y="1880" width="100" height="80" as="geometry" />
        </mxCell>
        <mxCell id="qrhTBZqcDBaqj9OsFunk-275" style="edgeStyle=none;rounded=0;orthogonalLoop=1;jettySize=auto;html=1;exitX=0.5;exitY=0.5;exitDx=0;exitDy=0;exitPerimeter=0;entryX=-0.036;entryY=0.52;entryDx=0;entryDy=0;entryPerimeter=0;" edge="1" parent="1" source="qrhTBZqcDBaqj9OsFunk-264" target="qrhTBZqcDBaqj9OsFunk-274">
          <mxGeometry relative="1" as="geometry" />
        </mxCell>
        <mxCell id="qrhTBZqcDBaqj9OsFunk-276" value="My Posts" style="text;html=1;align=center;verticalAlign=middle;resizable=0;points=[];autosize=1;strokeColor=none;fillColor=none;" vertex="1" parent="1">
          <mxGeometry x="150" y="1900" width="70" height="30" as="geometry" />
        </mxCell>
        <mxCell id="qrhTBZqcDBaqj9OsFunk-277" value="My Posts&lt;div&gt;pressed&lt;/div&gt;" style="text;whiteSpace=wrap;html=1;" vertex="1" parent="1">
          <mxGeometry x="355" y="1900" width="80" height="50" as="geometry" />
        </mxCell>
        <mxCell id="qrhTBZqcDBaqj9OsFunk-278" value="" style="endArrow=open;endFill=1;endSize=12;html=1;rounded=0;exitX=0.143;exitY=0.25;exitDx=0;exitDy=0;exitPerimeter=0;fillColor=#f8cecc;strokeColor=#b85450;" edge="1" parent="1" source="qrhTBZqcDBaqj9OsFunk-267">
          <mxGeometry width="160" relative="1" as="geometry">
            <mxPoint x="375" y="1860" as="sourcePoint" />
            <mxPoint x="365" y="1690" as="targetPoint" />
          </mxGeometry>
        </mxCell>
        <mxCell id="qrhTBZqcDBaqj9OsFunk-279" value="Error&amp;nbsp;Popup message&lt;div&gt;screen&lt;/div&gt;" style="shape=umlBoundary;whiteSpace=wrap;html=1;fillColor=#f8cecc;strokeColor=#b85450;" vertex="1" parent="1">
          <mxGeometry x="305" y="1610" width="100" height="80" as="geometry" />
        </mxCell>
        <mxCell id="qrhTBZqcDBaqj9OsFunk-280" value="" style="endArrow=open;endFill=1;endSize=12;html=1;rounded=0;exitX=0.3;exitY=0.875;exitDx=0;exitDy=0;exitPerimeter=0;fillColor=#f8cecc;strokeColor=#b85450;" edge="1" parent="1" source="qrhTBZqcDBaqj9OsFunk-279">
          <mxGeometry width="160" relative="1" as="geometry">
            <mxPoint x="435" y="1760" as="sourcePoint" />
            <mxPoint x="265" y="1690" as="targetPoint" />
          </mxGeometry>
        </mxCell>
        <mxCell id="qrhTBZqcDBaqj9OsFunk-281" value="Wrong Credentials" style="text;html=1;align=center;verticalAlign=middle;resizable=0;points=[];autosize=1;strokeColor=none;fillColor=none;" vertex="1" parent="1">
          <mxGeometry x="325" y="1690" width="120" height="30" as="geometry" />
        </mxCell>
        <mxCell id="qrhTBZqcDBaqj9OsFunk-282" value="Show" style="ellipse;shape=umlControl;whiteSpace=wrap;html=1;fillColor=#f8cecc;strokeColor=#b85450;" vertex="1" parent="1">
          <mxGeometry x="195" y="1650" width="70" height="80" as="geometry" />
        </mxCell>
        <mxCell id="qrhTBZqcDBaqj9OsFunk-283" value="" style="endArrow=open;endFill=1;endSize=12;html=1;rounded=0;exitX=0.871;exitY=0.944;exitDx=0;exitDy=0;exitPerimeter=0;fillColor=#f8cecc;strokeColor=#b85450;entryX=0.512;entryY=-0.023;entryDx=0;entryDy=0;entryPerimeter=0;" edge="1" parent="1" source="qrhTBZqcDBaqj9OsFunk-282" target="qrhTBZqcDBaqj9OsFunk-265">
          <mxGeometry width="160" relative="1" as="geometry">
            <mxPoint x="345" y="1690" as="sourcePoint" />
            <mxPoint x="275" y="1700" as="targetPoint" />
          </mxGeometry>
        </mxCell>
        <mxCell id="qrhTBZqcDBaqj9OsFunk-284" value="" style="edgeStyle=none;rounded=0;orthogonalLoop=1;jettySize=auto;html=1;exitX=0.275;exitY=0.972;exitDx=0;exitDy=0;exitPerimeter=0;" edge="1" parent="1" source="qrhTBZqcDBaqj9OsFunk-263">
          <mxGeometry relative="1" as="geometry">
            <mxPoint x="345" y="2010" as="targetPoint" />
            <mxPoint x="431" y="1803" as="sourcePoint" />
          </mxGeometry>
        </mxCell>
        <mxCell id="qrhTBZqcDBaqj9OsFunk-289" value="" style="edgeStyle=none;rounded=0;orthogonalLoop=1;jettySize=auto;html=1;" edge="1" parent="1" source="qrhTBZqcDBaqj9OsFunk-285">
          <mxGeometry relative="1" as="geometry">
            <mxPoint x="430" y="2030" as="targetPoint" />
          </mxGeometry>
        </mxCell>
        <mxCell id="qrhTBZqcDBaqj9OsFunk-285" value="My Posts&amp;nbsp;&lt;div&gt;Screen&lt;/div&gt;" style="shape=umlBoundary;whiteSpace=wrap;html=1;" vertex="1" parent="1">
          <mxGeometry x="250" y="1990" width="100" height="80" as="geometry" />
        </mxCell>
        <mxCell id="qrhTBZqcDBaqj9OsFunk-286" style="edgeStyle=none;rounded=0;orthogonalLoop=1;jettySize=auto;html=1;exitX=0.5;exitY=0.5;exitDx=0;exitDy=0;exitPerimeter=0;entryX=-0.023;entryY=0.578;entryDx=0;entryDy=0;entryPerimeter=0;" edge="1" parent="1" source="qrhTBZqcDBaqj9OsFunk-264" target="qrhTBZqcDBaqj9OsFunk-285">
          <mxGeometry relative="1" as="geometry" />
        </mxCell>
        <mxCell id="qrhTBZqcDBaqj9OsFunk-287" value="Chooses completed Post" style="text;html=1;align=center;verticalAlign=middle;resizable=0;points=[];autosize=1;strokeColor=none;fillColor=none;rotation=30;" vertex="1" parent="1">
          <mxGeometry x="95" y="1970" width="160" height="30" as="geometry" />
        </mxCell>
        <mxCell id="qrhTBZqcDBaqj9OsFunk-290" value="Show" style="ellipse;shape=umlControl;whiteSpace=wrap;html=1;" vertex="1" parent="1">
          <mxGeometry x="430" y="1990" width="70" height="80" as="geometry" />
        </mxCell>
        <mxCell id="qrhTBZqcDBaqj9OsFunk-291" value="" style="edgeStyle=none;rounded=0;orthogonalLoop=1;jettySize=auto;html=1;exitX=0.17;exitY=0.903;exitDx=0;exitDy=0;exitPerimeter=0;" edge="1" parent="1" source="qrhTBZqcDBaqj9OsFunk-290">
          <mxGeometry relative="1" as="geometry">
            <mxPoint x="395" y="2110" as="sourcePoint" />
            <mxPoint x="345" y="2110" as="targetPoint" />
          </mxGeometry>
        </mxCell>
        <mxCell id="qrhTBZqcDBaqj9OsFunk-296" value="" style="edgeStyle=none;rounded=0;orthogonalLoop=1;jettySize=auto;html=1;" edge="1" parent="1" source="qrhTBZqcDBaqj9OsFunk-292">
          <mxGeometry relative="1" as="geometry">
            <mxPoint x="430" y="2130" as="targetPoint" />
          </mxGeometry>
        </mxCell>
        <mxCell id="qrhTBZqcDBaqj9OsFunk-292" value="&amp;nbsp;Post&amp;nbsp;&lt;div&gt;Screen&lt;/div&gt;" style="shape=umlBoundary;whiteSpace=wrap;html=1;" vertex="1" parent="1">
          <mxGeometry x="250" y="2090" width="100" height="80" as="geometry" />
        </mxCell>
        <mxCell id="qrhTBZqcDBaqj9OsFunk-293" style="edgeStyle=none;rounded=0;orthogonalLoop=1;jettySize=auto;html=1;exitX=0.5;exitY=0.5;exitDx=0;exitDy=0;exitPerimeter=0;entryX=-0.023;entryY=0.574;entryDx=0;entryDy=0;entryPerimeter=0;" edge="1" parent="1" source="qrhTBZqcDBaqj9OsFunk-264" target="qrhTBZqcDBaqj9OsFunk-292">
          <mxGeometry relative="1" as="geometry" />
        </mxCell>
        <mxCell id="qrhTBZqcDBaqj9OsFunk-294" value="Rate Finder" style="text;html=1;align=center;verticalAlign=middle;resizable=0;points=[];autosize=1;strokeColor=none;fillColor=none;rotation=60;" vertex="1" parent="1">
          <mxGeometry x="165" y="2060" width="90" height="30" as="geometry" />
        </mxCell>
        <mxCell id="qrhTBZqcDBaqj9OsFunk-300" value="" style="edgeStyle=none;rounded=0;orthogonalLoop=1;jettySize=auto;html=1;" edge="1" parent="1" source="qrhTBZqcDBaqj9OsFunk-298">
          <mxGeometry relative="1" as="geometry">
            <mxPoint x="341.1848073382316" y="2201.839435726559" as="targetPoint" />
          </mxGeometry>
        </mxCell>
        <mxCell id="qrhTBZqcDBaqj9OsFunk-298" value="Show&lt;div&gt;Rating&amp;nbsp;&lt;/div&gt;&lt;div&gt;Form&lt;/div&gt;" style="ellipse;shape=umlControl;whiteSpace=wrap;html=1;" vertex="1" parent="1">
          <mxGeometry x="430" y="2090" width="70" height="80" as="geometry" />
        </mxCell>
        <mxCell id="qrhTBZqcDBaqj9OsFunk-305" value="" style="edgeStyle=none;rounded=0;orthogonalLoop=1;jettySize=auto;html=1;entryX=0.017;entryY=0.503;entryDx=0;entryDy=0;entryPerimeter=0;" edge="1" parent="1" source="qrhTBZqcDBaqj9OsFunk-301" target="qrhTBZqcDBaqj9OsFunk-306">
          <mxGeometry relative="1" as="geometry">
            <mxPoint x="430" y="2220" as="targetPoint" />
          </mxGeometry>
        </mxCell>
        <mxCell id="qrhTBZqcDBaqj9OsFunk-301" value="Rating Form&amp;nbsp;&lt;div&gt;Screen&lt;/div&gt;" style="shape=umlBoundary;whiteSpace=wrap;html=1;" vertex="1" parent="1">
          <mxGeometry x="250" y="2180" width="100" height="80" as="geometry" />
        </mxCell>
        <mxCell id="qrhTBZqcDBaqj9OsFunk-302" style="edgeStyle=none;rounded=0;orthogonalLoop=1;jettySize=auto;html=1;exitX=0.5;exitY=0.5;exitDx=0;exitDy=0;exitPerimeter=0;entryX=-0.008;entryY=0.749;entryDx=0;entryDy=0;entryPerimeter=0;" edge="1" parent="1" source="qrhTBZqcDBaqj9OsFunk-264" target="qrhTBZqcDBaqj9OsFunk-301">
          <mxGeometry relative="1" as="geometry" />
        </mxCell>
        <mxCell id="qrhTBZqcDBaqj9OsFunk-303" value="Completes Form" style="text;html=1;align=center;verticalAlign=middle;resizable=0;points=[];autosize=1;strokeColor=none;fillColor=none;rotation=60;" vertex="1" parent="1">
          <mxGeometry x="110" y="2100" width="110" height="30" as="geometry" />
        </mxCell>
        <mxCell id="qrhTBZqcDBaqj9OsFunk-309" value="" style="edgeStyle=none;rounded=0;orthogonalLoop=1;jettySize=auto;html=1;" edge="1" parent="1" source="qrhTBZqcDBaqj9OsFunk-306" target="qrhTBZqcDBaqj9OsFunk-308">
          <mxGeometry relative="1" as="geometry" />
        </mxCell>
        <mxCell id="qrhTBZqcDBaqj9OsFunk-313" value="" style="edgeStyle=none;rounded=0;orthogonalLoop=1;jettySize=auto;html=1;" edge="1" parent="1" source="qrhTBZqcDBaqj9OsFunk-306" target="qrhTBZqcDBaqj9OsFunk-312">
          <mxGeometry relative="1" as="geometry" />
        </mxCell>
        <mxCell id="qrhTBZqcDBaqj9OsFunk-306" value="Checks Form" style="ellipse;shape=umlControl;whiteSpace=wrap;html=1;" vertex="1" parent="1">
          <mxGeometry x="425" y="2180" width="70" height="80" as="geometry" />
        </mxCell>
        <mxCell id="qrhTBZqcDBaqj9OsFunk-308" value="Updates Finder Profile" style="ellipse;shape=umlControl;whiteSpace=wrap;html=1;" vertex="1" parent="1">
          <mxGeometry x="525" y="2140" width="70" height="80" as="geometry" />
        </mxCell>
        <mxCell id="qrhTBZqcDBaqj9OsFunk-315" value="" style="edgeStyle=none;rounded=0;orthogonalLoop=1;jettySize=auto;html=1;" edge="1" parent="1" source="qrhTBZqcDBaqj9OsFunk-312" target="qrhTBZqcDBaqj9OsFunk-314">
          <mxGeometry relative="1" as="geometry" />
        </mxCell>
        <mxCell id="qrhTBZqcDBaqj9OsFunk-312" value="Bad Language&amp;nbsp;" style="ellipse;shape=umlControl;whiteSpace=wrap;html=1;fillColor=#f8cecc;strokeColor=#b85450;" vertex="1" parent="1">
          <mxGeometry x="280" y="2270" width="70" height="80" as="geometry" />
        </mxCell>
        <mxCell id="qrhTBZqcDBaqj9OsFunk-317" value="" style="edgeStyle=none;rounded=0;orthogonalLoop=1;jettySize=auto;html=1;" edge="1" parent="1" source="qrhTBZqcDBaqj9OsFunk-314" target="qrhTBZqcDBaqj9OsFunk-316">
          <mxGeometry relative="1" as="geometry" />
        </mxCell>
        <mxCell id="qrhTBZqcDBaqj9OsFunk-314" value="Creates Report&amp;nbsp;" style="ellipse;shape=umlControl;whiteSpace=wrap;html=1;fillColor=#f8cecc;strokeColor=#b85450;" vertex="1" parent="1">
          <mxGeometry x="430" y="2270" width="70" height="80" as="geometry" />
        </mxCell>
        <mxCell id="qrhTBZqcDBaqj9OsFunk-319" value="" style="edgeStyle=none;rounded=0;orthogonalLoop=1;jettySize=auto;html=1;entryX=0.004;entryY=0.59;entryDx=0;entryDy=0;entryPerimeter=0;" edge="1" parent="1" source="qrhTBZqcDBaqj9OsFunk-316" target="qrhTBZqcDBaqj9OsFunk-320">
          <mxGeometry relative="1" as="geometry">
            <mxPoint x="660" y="2300" as="targetPoint" />
          </mxGeometry>
        </mxCell>
        <mxCell id="qrhTBZqcDBaqj9OsFunk-316" value="Adds report to Report list" style="ellipse;shape=umlControl;whiteSpace=wrap;html=1;fillColor=#f8cecc;strokeColor=#b85450;" vertex="1" parent="1">
          <mxGeometry x="565" y="2270" width="70" height="80" as="geometry" />
        </mxCell>
        <mxCell id="qrhTBZqcDBaqj9OsFunk-320" value="Popup message &quot;Unable To post due to bad language&quot;" style="shape=umlBoundary;whiteSpace=wrap;html=1;fillColor=#f8cecc;strokeColor=#b85450;" vertex="1" parent="1">
          <mxGeometry x="690" y="2260" width="100" height="80" as="geometry" />
        </mxCell>
        <mxCell id="qrhTBZqcDBaqj9OsFunk-322" style="edgeStyle=none;rounded=0;orthogonalLoop=1;jettySize=auto;html=1;exitX=1;exitY=1;exitDx=0;exitDy=0;entryX=0.837;entryY=0.275;entryDx=0;entryDy=0;entryPerimeter=0;" edge="1" parent="1" source="qrhTBZqcDBaqj9OsFunk-271" target="qrhTBZqcDBaqj9OsFunk-316">
          <mxGeometry relative="1" as="geometry" />
        </mxCell>
        <mxCell id="qrhTBZqcDBaqj9OsFunk-324" value="6." style="text;html=1;align=center;verticalAlign=middle;resizable=0;points=[];autosize=1;strokeColor=none;fillColor=none;" vertex="1" parent="1">
          <mxGeometry x="35" y="2440" width="30" height="30" as="geometry" />
        </mxCell>
        <mxCell id="qrhTBZqcDBaqj9OsFunk-348" value="" style="edgeStyle=none;rounded=0;orthogonalLoop=1;jettySize=auto;html=1;" edge="1" parent="1" source="qrhTBZqcDBaqj9OsFunk-325">
          <mxGeometry relative="1" as="geometry">
            <mxPoint x="306.5130743128857" y="2812.595289500833" as="targetPoint" />
          </mxGeometry>
        </mxCell>
        <mxCell id="qrhTBZqcDBaqj9OsFunk-325" value="Show" style="ellipse;shape=umlControl;whiteSpace=wrap;html=1;" vertex="1" parent="1">
          <mxGeometry x="440" y="2680" width="70" height="80" as="geometry" />
        </mxCell>
        <mxCell id="qrhTBZqcDBaqj9OsFunk-326" value="&amp;nbsp;Business Owner" style="shape=umlActor;verticalLabelPosition=bottom;verticalAlign=top;html=1;" vertex="1" parent="1">
          <mxGeometry x="45" y="2558" width="30" height="60" as="geometry" />
        </mxCell>
        <mxCell id="qrhTBZqcDBaqj9OsFunk-327" value="Login screen" style="shape=umlBoundary;whiteSpace=wrap;html=1;" vertex="1" parent="1">
          <mxGeometry x="200" y="2548" width="100" height="80" as="geometry" />
        </mxCell>
        <mxCell id="qrhTBZqcDBaqj9OsFunk-328" value="" style="edgeStyle=none;rounded=0;orthogonalLoop=1;jettySize=auto;html=1;" edge="1" parent="1" source="qrhTBZqcDBaqj9OsFunk-329">
          <mxGeometry relative="1" as="geometry">
            <mxPoint x="290" y="2688" as="targetPoint" />
          </mxGeometry>
        </mxCell>
        <mxCell id="qrhTBZqcDBaqj9OsFunk-329" value="Credentials&lt;div&gt;check&lt;/div&gt;" style="ellipse;shape=umlControl;whiteSpace=wrap;html=1;" vertex="1" parent="1">
          <mxGeometry x="390" y="2538" width="70" height="80" as="geometry" />
        </mxCell>
        <mxCell id="qrhTBZqcDBaqj9OsFunk-330" style="edgeStyle=none;rounded=0;orthogonalLoop=1;jettySize=auto;html=1;exitX=0.5;exitY=0.5;exitDx=0;exitDy=0;exitPerimeter=0;entryX=-0.04;entryY=0.525;entryDx=0;entryDy=0;entryPerimeter=0;" edge="1" parent="1" source="qrhTBZqcDBaqj9OsFunk-326" target="qrhTBZqcDBaqj9OsFunk-327">
          <mxGeometry relative="1" as="geometry" />
        </mxCell>
        <mxCell id="qrhTBZqcDBaqj9OsFunk-331" value="" style="endArrow=open;endFill=1;endSize=12;html=1;rounded=0;entryX=-0.029;entryY=0.615;entryDx=0;entryDy=0;entryPerimeter=0;" edge="1" parent="1" target="qrhTBZqcDBaqj9OsFunk-329">
          <mxGeometry width="160" relative="1" as="geometry">
            <mxPoint x="301" y="2588" as="sourcePoint" />
            <mxPoint x="330" y="2708" as="targetPoint" />
          </mxGeometry>
        </mxCell>
        <mxCell id="qrhTBZqcDBaqj9OsFunk-332" value="Types credentials" style="text;html=1;align=center;verticalAlign=middle;resizable=0;points=[];autosize=1;strokeColor=none;fillColor=none;" vertex="1" parent="1">
          <mxGeometry x="75" y="2563" width="120" height="30" as="geometry" />
        </mxCell>
        <mxCell id="qrhTBZqcDBaqj9OsFunk-333" value="&lt;div&gt;&lt;span style=&quot;background-color: transparent; color: light-dark(rgb(0, 0, 0), rgb(255, 255, 255));&quot;&gt;Data Base&lt;/span&gt;&lt;/div&gt;" style="ellipse;shape=umlEntity;whiteSpace=wrap;html=1;" vertex="1" parent="1">
          <mxGeometry x="515" y="2418" width="80" height="80" as="geometry" />
        </mxCell>
        <mxCell id="qrhTBZqcDBaqj9OsFunk-334" style="edgeStyle=none;rounded=0;orthogonalLoop=1;jettySize=auto;html=1;exitX=0;exitY=1;exitDx=0;exitDy=0;entryX=0.863;entryY=0.24;entryDx=0;entryDy=0;entryPerimeter=0;" edge="1" parent="1" source="qrhTBZqcDBaqj9OsFunk-333" target="qrhTBZqcDBaqj9OsFunk-329">
          <mxGeometry relative="1" as="geometry" />
        </mxCell>
        <mxCell id="qrhTBZqcDBaqj9OsFunk-335" value="" style="edgeStyle=none;rounded=0;orthogonalLoop=1;jettySize=auto;html=1;entryX=-0.005;entryY=0.604;entryDx=0;entryDy=0;entryPerimeter=0;" edge="1" parent="1" source="qrhTBZqcDBaqj9OsFunk-336" target="qrhTBZqcDBaqj9OsFunk-325">
          <mxGeometry relative="1" as="geometry">
            <mxPoint x="400" y="2728" as="targetPoint" />
          </mxGeometry>
        </mxCell>
        <mxCell id="qrhTBZqcDBaqj9OsFunk-336" value="&lt;div&gt;Business&lt;/div&gt;Main menu" style="shape=umlBoundary;whiteSpace=wrap;html=1;" vertex="1" parent="1">
          <mxGeometry x="220" y="2688" width="100" height="80" as="geometry" />
        </mxCell>
        <mxCell id="qrhTBZqcDBaqj9OsFunk-337" style="edgeStyle=none;rounded=0;orthogonalLoop=1;jettySize=auto;html=1;exitX=0.5;exitY=0.5;exitDx=0;exitDy=0;exitPerimeter=0;entryX=-0.036;entryY=0.52;entryDx=0;entryDy=0;entryPerimeter=0;" edge="1" parent="1" source="qrhTBZqcDBaqj9OsFunk-326" target="qrhTBZqcDBaqj9OsFunk-336">
          <mxGeometry relative="1" as="geometry" />
        </mxCell>
        <mxCell id="qrhTBZqcDBaqj9OsFunk-338" value="Add Post" style="text;html=1;align=center;verticalAlign=middle;resizable=0;points=[];autosize=1;strokeColor=none;fillColor=none;" vertex="1" parent="1">
          <mxGeometry x="120" y="2628" width="70" height="30" as="geometry" />
        </mxCell>
        <mxCell id="qrhTBZqcDBaqj9OsFunk-340" value="" style="endArrow=open;endFill=1;endSize=12;html=1;rounded=0;exitX=0.143;exitY=0.25;exitDx=0;exitDy=0;exitPerimeter=0;fillColor=#f8cecc;strokeColor=#b85450;" edge="1" parent="1" source="qrhTBZqcDBaqj9OsFunk-329">
          <mxGeometry width="160" relative="1" as="geometry">
            <mxPoint x="350" y="2668" as="sourcePoint" />
            <mxPoint x="340" y="2498" as="targetPoint" />
          </mxGeometry>
        </mxCell>
        <mxCell id="qrhTBZqcDBaqj9OsFunk-341" value="Error&amp;nbsp;Popup message&lt;div&gt;screen&lt;/div&gt;" style="shape=umlBoundary;whiteSpace=wrap;html=1;fillColor=#f8cecc;strokeColor=#b85450;" vertex="1" parent="1">
          <mxGeometry x="280" y="2418" width="100" height="80" as="geometry" />
        </mxCell>
        <mxCell id="qrhTBZqcDBaqj9OsFunk-342" value="" style="endArrow=open;endFill=1;endSize=12;html=1;rounded=0;exitX=0.3;exitY=0.875;exitDx=0;exitDy=0;exitPerimeter=0;fillColor=#f8cecc;strokeColor=#b85450;" edge="1" parent="1" source="qrhTBZqcDBaqj9OsFunk-341">
          <mxGeometry width="160" relative="1" as="geometry">
            <mxPoint x="410" y="2568" as="sourcePoint" />
            <mxPoint x="240" y="2498" as="targetPoint" />
          </mxGeometry>
        </mxCell>
        <mxCell id="qrhTBZqcDBaqj9OsFunk-343" value="Wrong Credentials" style="text;html=1;align=center;verticalAlign=middle;resizable=0;points=[];autosize=1;strokeColor=none;fillColor=none;" vertex="1" parent="1">
          <mxGeometry x="300" y="2498" width="120" height="30" as="geometry" />
        </mxCell>
        <mxCell id="qrhTBZqcDBaqj9OsFunk-344" value="Show" style="ellipse;shape=umlControl;whiteSpace=wrap;html=1;fillColor=#f8cecc;strokeColor=#b85450;" vertex="1" parent="1">
          <mxGeometry x="170" y="2458" width="70" height="80" as="geometry" />
        </mxCell>
        <mxCell id="qrhTBZqcDBaqj9OsFunk-345" value="" style="endArrow=open;endFill=1;endSize=12;html=1;rounded=0;exitX=0.871;exitY=0.944;exitDx=0;exitDy=0;exitPerimeter=0;fillColor=#f8cecc;strokeColor=#b85450;entryX=0.512;entryY=-0.023;entryDx=0;entryDy=0;entryPerimeter=0;" edge="1" parent="1" source="qrhTBZqcDBaqj9OsFunk-344" target="qrhTBZqcDBaqj9OsFunk-327">
          <mxGeometry width="160" relative="1" as="geometry">
            <mxPoint x="320" y="2498" as="sourcePoint" />
            <mxPoint x="250" y="2508" as="targetPoint" />
          </mxGeometry>
        </mxCell>
        <mxCell id="qrhTBZqcDBaqj9OsFunk-346" value="&lt;font style=&quot;color: rgb(0, 0, 0);&quot;&gt;&lt;span style=&quot;font-size: 11pt; line-height: 115%; font-family: Calibri, &amp;quot;sans-serif&amp;quot;;&quot; lang=&quot;EN-US&quot;&gt;Add my business as&amp;nbsp;&lt;/span&gt;&lt;/font&gt;&lt;div&gt;&lt;font style=&quot;color: rgb(0, 0, 0);&quot;&gt;&lt;span style=&quot;font-size: 11pt; line-height: 115%; font-family: Calibri, &amp;quot;sans-serif&amp;quot;;&quot; lang=&quot;EN-US&quot;&gt;a &lt;/span&gt;&lt;span style=&quot;font-size:11.0pt;line-height:115%;font-family:&amp;quot;Calibri&amp;quot;,&amp;quot;sans-serif&amp;quot;;&lt;br/&gt;mso-ascii-theme-font:minor-latin;mso-fareast-font-family:Calibri;mso-fareast-theme-font:&lt;br/&gt;minor-latin;mso-hansi-theme-font:minor-latin;mso-bidi-font-family:&amp;quot;Times New Roman&amp;quot;;&lt;br/&gt;mso-bidi-theme-font:minor-bidi;mso-ansi-language:EN-US;mso-fareast-language:&lt;br/&gt;EN-US;mso-bidi-language:AR-SA&quot; lang=&quot;EN-US&quot;&gt;Drop-off Point&lt;/span&gt;&lt;/font&gt;&lt;/div&gt;" style="text;html=1;align=center;verticalAlign=middle;resizable=0;points=[];autosize=1;strokeColor=none;fillColor=none;" vertex="1" parent="1">
          <mxGeometry x="310" y="2703" width="140" height="50" as="geometry" />
        </mxCell>
        <mxCell id="qrhTBZqcDBaqj9OsFunk-359" value="" style="edgeStyle=none;rounded=0;orthogonalLoop=1;jettySize=auto;html=1;" edge="1" parent="1" source="qrhTBZqcDBaqj9OsFunk-349" target="qrhTBZqcDBaqj9OsFunk-358">
          <mxGeometry relative="1" as="geometry" />
        </mxCell>
        <mxCell id="qrhTBZqcDBaqj9OsFunk-362" value="" style="edgeStyle=none;rounded=0;orthogonalLoop=1;jettySize=auto;html=1;fillColor=#f8cecc;strokeColor=#b85450;exitX=0.339;exitY=0.964;exitDx=0;exitDy=0;exitPerimeter=0;" edge="1" parent="1" source="qrhTBZqcDBaqj9OsFunk-358" target="qrhTBZqcDBaqj9OsFunk-355">
          <mxGeometry relative="1" as="geometry" />
        </mxCell>
        <mxCell id="qrhTBZqcDBaqj9OsFunk-349" value="&lt;div&gt;&lt;span style=&quot;background-color: transparent; color: light-dark(rgb(0, 0, 0), rgb(255, 255, 255));&quot;&gt;Add Business&lt;/span&gt;&lt;/div&gt;&lt;div&gt;&lt;span style=&quot;background-color: transparent; color: light-dark(rgb(0, 0, 0), rgb(255, 255, 255));&quot;&gt;Form Screen&amp;nbsp;&lt;/span&gt;&lt;/div&gt;" style="shape=umlBoundary;whiteSpace=wrap;html=1;" vertex="1" parent="1">
          <mxGeometry x="215" y="2800" width="100" height="80" as="geometry" />
        </mxCell>
        <mxCell id="qrhTBZqcDBaqj9OsFunk-350" style="edgeStyle=none;rounded=0;orthogonalLoop=1;jettySize=auto;html=1;exitX=0.5;exitY=0.5;exitDx=0;exitDy=0;exitPerimeter=0;entryX=-0.033;entryY=0.496;entryDx=0;entryDy=0;entryPerimeter=0;" edge="1" parent="1" source="qrhTBZqcDBaqj9OsFunk-326" target="qrhTBZqcDBaqj9OsFunk-349">
          <mxGeometry relative="1" as="geometry" />
        </mxCell>
        <mxCell id="qrhTBZqcDBaqj9OsFunk-351" value="Fills Form" style="text;html=1;align=center;verticalAlign=middle;resizable=0;points=[];autosize=1;strokeColor=none;fillColor=none;" vertex="1" parent="1">
          <mxGeometry x="75" y="2728" width="80" height="30" as="geometry" />
        </mxCell>
        <mxCell id="qrhTBZqcDBaqj9OsFunk-354" value="" style="edgeStyle=none;rounded=0;orthogonalLoop=1;jettySize=auto;html=1;" edge="1" parent="1" source="qrhTBZqcDBaqj9OsFunk-352" target="qrhTBZqcDBaqj9OsFunk-333">
          <mxGeometry relative="1" as="geometry" />
        </mxCell>
        <mxCell id="qrhTBZqcDBaqj9OsFunk-352" value="Saves Business as&amp;nbsp; Drop-off Point" style="ellipse;shape=umlControl;whiteSpace=wrap;html=1;" vertex="1" parent="1">
          <mxGeometry x="525" y="2800" width="70" height="80" as="geometry" />
        </mxCell>
        <mxCell id="qrhTBZqcDBaqj9OsFunk-366" value="" style="edgeStyle=none;rounded=0;orthogonalLoop=1;jettySize=auto;html=1;fillColor=#f8cecc;strokeColor=#b85450;" edge="1" parent="1" source="qrhTBZqcDBaqj9OsFunk-355" target="qrhTBZqcDBaqj9OsFunk-365">
          <mxGeometry relative="1" as="geometry" />
        </mxCell>
        <mxCell id="qrhTBZqcDBaqj9OsFunk-355" value="Show" style="ellipse;shape=umlControl;whiteSpace=wrap;html=1;fillColor=#f8cecc;strokeColor=#b85450;" vertex="1" parent="1">
          <mxGeometry x="360" y="2940" width="70" height="80" as="geometry" />
        </mxCell>
        <mxCell id="qrhTBZqcDBaqj9OsFunk-357" value="Correct&amp;nbsp;&lt;div&gt;Form&lt;/div&gt;" style="text;html=1;align=center;verticalAlign=middle;resizable=0;points=[];autosize=1;strokeColor=none;fillColor=none;" vertex="1" parent="1">
          <mxGeometry x="440" y="2820" width="70" height="40" as="geometry" />
        </mxCell>
        <mxCell id="qrhTBZqcDBaqj9OsFunk-364" value="" style="edgeStyle=none;rounded=0;orthogonalLoop=1;jettySize=auto;html=1;" edge="1" parent="1" source="qrhTBZqcDBaqj9OsFunk-358" target="qrhTBZqcDBaqj9OsFunk-352">
          <mxGeometry relative="1" as="geometry" />
        </mxCell>
        <mxCell id="qrhTBZqcDBaqj9OsFunk-358" value="Check if business exists" style="ellipse;shape=umlControl;whiteSpace=wrap;html=1;" vertex="1" parent="1">
          <mxGeometry x="365" y="2800" width="75" height="80" as="geometry" />
        </mxCell>
        <mxCell id="qrhTBZqcDBaqj9OsFunk-363" value="&lt;font style=&quot;color: rgb(255, 0, 0);&quot;&gt;Wrong Form&lt;/font&gt;" style="text;html=1;align=center;verticalAlign=middle;resizable=0;points=[];autosize=1;strokeColor=none;fillColor=none;" vertex="1" parent="1">
          <mxGeometry x="305" y="2900" width="90" height="30" as="geometry" />
        </mxCell>
        <mxCell id="qrhTBZqcDBaqj9OsFunk-368" value="" style="edgeStyle=none;rounded=0;orthogonalLoop=1;jettySize=auto;html=1;fillColor=#f8cecc;strokeColor=#b85450;exitX=-0.025;exitY=0.487;exitDx=0;exitDy=0;exitPerimeter=0;" edge="1" parent="1" source="qrhTBZqcDBaqj9OsFunk-365" target="qrhTBZqcDBaqj9OsFunk-367">
          <mxGeometry relative="1" as="geometry" />
        </mxCell>
        <mxCell id="qrhTBZqcDBaqj9OsFunk-365" value="&lt;div&gt;Popup message &quot;Cannot Find Business&quot;&lt;/div&gt;" style="shape=umlBoundary;whiteSpace=wrap;html=1;fillColor=#f8cecc;strokeColor=#b85450;" vertex="1" parent="1">
          <mxGeometry x="200" y="2930" width="100" height="80" as="geometry" />
        </mxCell>
        <mxCell id="qrhTBZqcDBaqj9OsFunk-369" value="" style="edgeStyle=none;rounded=0;orthogonalLoop=1;jettySize=auto;html=1;fillColor=#f8cecc;strokeColor=#b85450;" edge="1" parent="1" source="qrhTBZqcDBaqj9OsFunk-367" target="qrhTBZqcDBaqj9OsFunk-349">
          <mxGeometry relative="1" as="geometry" />
        </mxCell>
        <mxCell id="qrhTBZqcDBaqj9OsFunk-367" value="Show" style="ellipse;shape=umlControl;whiteSpace=wrap;html=1;fillColor=#f8cecc;strokeColor=#b85450;" vertex="1" parent="1">
          <mxGeometry x="105" y="2880" width="70" height="80" as="geometry" />
        </mxCell>
        <mxCell id="qrhTBZqcDBaqj9OsFunk-374" value="2." style="text;html=1;align=center;verticalAlign=middle;resizable=0;points=[];autosize=1;strokeColor=none;fillColor=none;" vertex="1" parent="1">
          <mxGeometry x="35" y="720" width="30" height="30" as="geometry" />
        </mxCell>
        <mxCell id="qrhTBZqcDBaqj9OsFunk-375" value="Show" style="ellipse;shape=umlControl;whiteSpace=wrap;html=1;" vertex="1" parent="1">
          <mxGeometry x="440" y="1000" width="70" height="80" as="geometry" />
        </mxCell>
        <mxCell id="qrhTBZqcDBaqj9OsFunk-376" value="Finder" style="shape=umlActor;verticalLabelPosition=bottom;verticalAlign=top;html=1;" vertex="1" parent="1">
          <mxGeometry x="85" y="870" width="30" height="60" as="geometry" />
        </mxCell>
        <mxCell id="qrhTBZqcDBaqj9OsFunk-377" value="Login screen" style="shape=umlBoundary;whiteSpace=wrap;html=1;" vertex="1" parent="1">
          <mxGeometry x="240" y="860" width="100" height="80" as="geometry" />
        </mxCell>
        <mxCell id="qrhTBZqcDBaqj9OsFunk-378" value="" style="edgeStyle=none;rounded=0;orthogonalLoop=1;jettySize=auto;html=1;" edge="1" parent="1" source="qrhTBZqcDBaqj9OsFunk-379">
          <mxGeometry relative="1" as="geometry">
            <mxPoint x="330" y="1000" as="targetPoint" />
          </mxGeometry>
        </mxCell>
        <mxCell id="qrhTBZqcDBaqj9OsFunk-379" value="Credentials&lt;div&gt;check&lt;/div&gt;" style="ellipse;shape=umlControl;whiteSpace=wrap;html=1;" vertex="1" parent="1">
          <mxGeometry x="430" y="850" width="70" height="80" as="geometry" />
        </mxCell>
        <mxCell id="qrhTBZqcDBaqj9OsFunk-380" style="edgeStyle=none;rounded=0;orthogonalLoop=1;jettySize=auto;html=1;exitX=0.5;exitY=0.5;exitDx=0;exitDy=0;exitPerimeter=0;entryX=-0.04;entryY=0.525;entryDx=0;entryDy=0;entryPerimeter=0;" edge="1" parent="1" source="qrhTBZqcDBaqj9OsFunk-376" target="qrhTBZqcDBaqj9OsFunk-377">
          <mxGeometry relative="1" as="geometry" />
        </mxCell>
        <mxCell id="qrhTBZqcDBaqj9OsFunk-381" value="" style="endArrow=open;endFill=1;endSize=12;html=1;rounded=0;entryX=-0.029;entryY=0.615;entryDx=0;entryDy=0;entryPerimeter=0;" edge="1" parent="1" target="qrhTBZqcDBaqj9OsFunk-379">
          <mxGeometry width="160" relative="1" as="geometry">
            <mxPoint x="341" y="900" as="sourcePoint" />
            <mxPoint x="370" y="1020" as="targetPoint" />
          </mxGeometry>
        </mxCell>
        <mxCell id="qrhTBZqcDBaqj9OsFunk-382" value="Types credentials" style="text;html=1;align=center;verticalAlign=middle;resizable=0;points=[];autosize=1;strokeColor=none;fillColor=none;" vertex="1" parent="1">
          <mxGeometry x="115" y="875" width="120" height="30" as="geometry" />
        </mxCell>
        <mxCell id="qrhTBZqcDBaqj9OsFunk-383" value="&lt;div&gt;&lt;span style=&quot;background-color: transparent; color: light-dark(rgb(0, 0, 0), rgb(255, 255, 255));&quot;&gt;Data Base&lt;/span&gt;&lt;/div&gt;" style="ellipse;shape=umlEntity;whiteSpace=wrap;html=1;" vertex="1" parent="1">
          <mxGeometry x="540" y="730" width="80" height="80" as="geometry" />
        </mxCell>
        <mxCell id="qrhTBZqcDBaqj9OsFunk-384" style="edgeStyle=none;rounded=0;orthogonalLoop=1;jettySize=auto;html=1;exitX=0;exitY=1;exitDx=0;exitDy=0;entryX=0.863;entryY=0.24;entryDx=0;entryDy=0;entryPerimeter=0;endArrow=none;startFill=0;" edge="1" parent="1" source="qrhTBZqcDBaqj9OsFunk-383" target="qrhTBZqcDBaqj9OsFunk-379">
          <mxGeometry relative="1" as="geometry" />
        </mxCell>
        <mxCell id="qrhTBZqcDBaqj9OsFunk-385" value="" style="edgeStyle=none;rounded=0;orthogonalLoop=1;jettySize=auto;html=1;" edge="1" parent="1" source="qrhTBZqcDBaqj9OsFunk-386">
          <mxGeometry relative="1" as="geometry">
            <mxPoint x="440" y="1040" as="targetPoint" />
          </mxGeometry>
        </mxCell>
        <mxCell id="qrhTBZqcDBaqj9OsFunk-386" value="Main menu" style="shape=umlBoundary;whiteSpace=wrap;html=1;" vertex="1" parent="1">
          <mxGeometry x="260" y="1000" width="100" height="80" as="geometry" />
        </mxCell>
        <mxCell id="qrhTBZqcDBaqj9OsFunk-387" style="edgeStyle=none;rounded=0;orthogonalLoop=1;jettySize=auto;html=1;exitX=0.5;exitY=0.5;exitDx=0;exitDy=0;exitPerimeter=0;entryX=-0.036;entryY=0.52;entryDx=0;entryDy=0;entryPerimeter=0;" edge="1" parent="1" source="qrhTBZqcDBaqj9OsFunk-376" target="qrhTBZqcDBaqj9OsFunk-386">
          <mxGeometry relative="1" as="geometry" />
        </mxCell>
        <mxCell id="qrhTBZqcDBaqj9OsFunk-388" value="Submit Post ,Found Item" style="text;html=1;align=center;verticalAlign=middle;resizable=0;points=[];autosize=1;strokeColor=none;fillColor=none;rotation=40;" vertex="1" parent="1">
          <mxGeometry x="110" y="950" width="160" height="30" as="geometry" />
        </mxCell>
        <mxCell id="qrhTBZqcDBaqj9OsFunk-389" value="Create Post&lt;div&gt;screen&lt;/div&gt;" style="shape=umlBoundary;whiteSpace=wrap;html=1;" vertex="1" parent="1">
          <mxGeometry x="250" y="1130" width="100" height="80" as="geometry" />
        </mxCell>
        <mxCell id="qrhTBZqcDBaqj9OsFunk-390" value="Add Post &#xa;Pressed" style="text;whiteSpace=wrap;html=1;" vertex="1" parent="1">
          <mxGeometry x="370" y="1020" width="80" height="50" as="geometry" />
        </mxCell>
        <mxCell id="qrhTBZqcDBaqj9OsFunk-391" value="" style="endArrow=open;endFill=1;endSize=12;html=1;rounded=0;entryX=0.44;entryY=0.065;entryDx=0;entryDy=0;entryPerimeter=0;exitX=0.526;exitY=0.985;exitDx=0;exitDy=0;exitPerimeter=0;" edge="1" parent="1" source="qrhTBZqcDBaqj9OsFunk-375" target="qrhTBZqcDBaqj9OsFunk-389">
          <mxGeometry width="160" relative="1" as="geometry">
            <mxPoint x="290" y="1190" as="sourcePoint" />
            <mxPoint x="450" y="1190" as="targetPoint" />
          </mxGeometry>
        </mxCell>
        <mxCell id="qrhTBZqcDBaqj9OsFunk-392" style="edgeStyle=none;rounded=0;orthogonalLoop=1;jettySize=auto;html=1;exitX=0.5;exitY=0.5;exitDx=0;exitDy=0;exitPerimeter=0;entryX=-0.017;entryY=0.528;entryDx=0;entryDy=0;entryPerimeter=0;" edge="1" parent="1" source="qrhTBZqcDBaqj9OsFunk-376" target="qrhTBZqcDBaqj9OsFunk-389">
          <mxGeometry relative="1" as="geometry" />
        </mxCell>
        <mxCell id="qrhTBZqcDBaqj9OsFunk-393" value="Fills Item Form" style="text;html=1;align=center;verticalAlign=middle;resizable=0;points=[];autosize=1;strokeColor=none;fillColor=none;" vertex="1" parent="1">
          <mxGeometry x="100" y="1070" width="100" height="30" as="geometry" />
        </mxCell>
        <mxCell id="qrhTBZqcDBaqj9OsFunk-394" value="" style="endArrow=open;endFill=1;endSize=12;html=1;rounded=0;exitX=1.035;exitY=0.56;exitDx=0;exitDy=0;exitPerimeter=0;" edge="1" parent="1" source="qrhTBZqcDBaqj9OsFunk-389">
          <mxGeometry width="160" relative="1" as="geometry">
            <mxPoint x="370" y="1160" as="sourcePoint" />
            <mxPoint x="450" y="1170" as="targetPoint" />
          </mxGeometry>
        </mxCell>
        <mxCell id="qrhTBZqcDBaqj9OsFunk-395" value="Submit&amp;nbsp;&lt;div&gt;Post&lt;/div&gt;" style="ellipse;shape=umlControl;whiteSpace=wrap;html=1;" vertex="1" parent="1">
          <mxGeometry x="590" y="1120" width="70" height="80" as="geometry" />
        </mxCell>
        <mxCell id="qrhTBZqcDBaqj9OsFunk-396" value="Form Check" style="ellipse;shape=umlControl;whiteSpace=wrap;html=1;" vertex="1" parent="1">
          <mxGeometry x="450" y="1130" width="70" height="80" as="geometry" />
        </mxCell>
        <mxCell id="qrhTBZqcDBaqj9OsFunk-397" value="" style="endArrow=open;endFill=1;endSize=12;html=1;rounded=0;entryX=0.014;entryY=0.58;entryDx=0;entryDy=0;entryPerimeter=0;exitX=1.028;exitY=0.486;exitDx=0;exitDy=0;exitPerimeter=0;" edge="1" parent="1" source="qrhTBZqcDBaqj9OsFunk-396" target="qrhTBZqcDBaqj9OsFunk-395">
          <mxGeometry width="160" relative="1" as="geometry">
            <mxPoint x="390" y="980" as="sourcePoint" />
            <mxPoint x="550" y="980" as="targetPoint" />
          </mxGeometry>
        </mxCell>
        <mxCell id="qrhTBZqcDBaqj9OsFunk-398" value="Correct" style="text;html=1;align=center;verticalAlign=middle;resizable=0;points=[];autosize=1;strokeColor=none;fillColor=none;" vertex="1" parent="1">
          <mxGeometry x="520" y="1138" width="60" height="30" as="geometry" />
        </mxCell>
        <mxCell id="qrhTBZqcDBaqj9OsFunk-399" style="edgeStyle=none;rounded=0;orthogonalLoop=1;jettySize=auto;html=1;exitX=0.5;exitY=1;exitDx=0;exitDy=0;entryX=0.483;entryY=0.106;entryDx=0;entryDy=0;entryPerimeter=0;" edge="1" parent="1" source="qrhTBZqcDBaqj9OsFunk-383" target="qrhTBZqcDBaqj9OsFunk-395">
          <mxGeometry relative="1" as="geometry" />
        </mxCell>
        <mxCell id="qrhTBZqcDBaqj9OsFunk-400" value="" style="endArrow=open;endFill=1;endSize=12;html=1;rounded=0;exitX=0.143;exitY=0.25;exitDx=0;exitDy=0;exitPerimeter=0;fillColor=#f8cecc;strokeColor=#b85450;" edge="1" parent="1" source="qrhTBZqcDBaqj9OsFunk-379">
          <mxGeometry width="160" relative="1" as="geometry">
            <mxPoint x="390" y="980" as="sourcePoint" />
            <mxPoint x="380" y="810" as="targetPoint" />
          </mxGeometry>
        </mxCell>
        <mxCell id="qrhTBZqcDBaqj9OsFunk-401" value="Error&amp;nbsp;Popup message&lt;div&gt;screen&lt;/div&gt;" style="shape=umlBoundary;whiteSpace=wrap;html=1;fillColor=#f8cecc;strokeColor=#b85450;" vertex="1" parent="1">
          <mxGeometry x="320" y="730" width="100" height="80" as="geometry" />
        </mxCell>
        <mxCell id="qrhTBZqcDBaqj9OsFunk-402" value="" style="endArrow=open;endFill=1;endSize=12;html=1;rounded=0;exitX=0.3;exitY=0.875;exitDx=0;exitDy=0;exitPerimeter=0;fillColor=#f8cecc;strokeColor=#b85450;" edge="1" parent="1" source="qrhTBZqcDBaqj9OsFunk-401">
          <mxGeometry width="160" relative="1" as="geometry">
            <mxPoint x="450" y="880" as="sourcePoint" />
            <mxPoint x="280" y="810" as="targetPoint" />
          </mxGeometry>
        </mxCell>
        <mxCell id="qrhTBZqcDBaqj9OsFunk-403" value="Wrong Credentials" style="text;html=1;align=center;verticalAlign=middle;resizable=0;points=[];autosize=1;strokeColor=none;fillColor=none;" vertex="1" parent="1">
          <mxGeometry x="340" y="810" width="120" height="30" as="geometry" />
        </mxCell>
        <mxCell id="qrhTBZqcDBaqj9OsFunk-404" value="" style="endArrow=open;endFill=1;endSize=12;html=1;rounded=0;exitX=0.426;exitY=1.013;exitDx=0;exitDy=0;exitPerimeter=0;fillColor=#f8cecc;strokeColor=#b85450;" edge="1" parent="1" source="qrhTBZqcDBaqj9OsFunk-396">
          <mxGeometry width="160" relative="1" as="geometry">
            <mxPoint x="450" y="880" as="sourcePoint" />
            <mxPoint x="420" y="1250" as="targetPoint" />
          </mxGeometry>
        </mxCell>
        <mxCell id="qrhTBZqcDBaqj9OsFunk-405" value="Wrong" style="text;html=1;align=center;verticalAlign=middle;resizable=0;points=[];autosize=1;strokeColor=none;fillColor=none;" vertex="1" parent="1">
          <mxGeometry x="440" y="1228" width="60" height="30" as="geometry" />
        </mxCell>
        <mxCell id="qrhTBZqcDBaqj9OsFunk-406" value="Error Popup message&lt;div&gt;screen&lt;/div&gt;" style="shape=umlBoundary;whiteSpace=wrap;html=1;fillColor=#f8cecc;strokeColor=#b85450;" vertex="1" parent="1">
          <mxGeometry x="320" y="1228" width="100" height="80" as="geometry" />
        </mxCell>
        <mxCell id="qrhTBZqcDBaqj9OsFunk-407" value="" style="endArrow=open;endFill=1;endSize=12;html=1;rounded=0;exitX=-0.035;exitY=0.451;exitDx=0;exitDy=0;exitPerimeter=0;fillColor=#f8cecc;strokeColor=#b85450;entryX=1.04;entryY=0.461;entryDx=0;entryDy=0;entryPerimeter=0;" edge="1" parent="1" source="qrhTBZqcDBaqj9OsFunk-406" target="qrhTBZqcDBaqj9OsFunk-409">
          <mxGeometry width="160" relative="1" as="geometry">
            <mxPoint x="490" y="1221" as="sourcePoint" />
            <mxPoint x="430" y="1260" as="targetPoint" />
          </mxGeometry>
        </mxCell>
        <mxCell id="qrhTBZqcDBaqj9OsFunk-408" value="Show" style="ellipse;shape=umlControl;whiteSpace=wrap;html=1;fillColor=#f8cecc;strokeColor=#b85450;" vertex="1" parent="1">
          <mxGeometry x="210" y="770" width="70" height="80" as="geometry" />
        </mxCell>
        <mxCell id="qrhTBZqcDBaqj9OsFunk-409" value="Show" style="ellipse;shape=umlControl;whiteSpace=wrap;html=1;fillColor=#f8cecc;strokeColor=#b85450;" vertex="1" parent="1">
          <mxGeometry x="210" y="1228" width="70" height="80" as="geometry" />
        </mxCell>
        <mxCell id="qrhTBZqcDBaqj9OsFunk-410" value="" style="endArrow=open;endFill=1;endSize=12;html=1;rounded=0;exitX=0.823;exitY=0.198;exitDx=0;exitDy=0;exitPerimeter=0;fillColor=#f8cecc;strokeColor=#b85450;entryX=0.564;entryY=1.002;entryDx=0;entryDy=0;entryPerimeter=0;" edge="1" parent="1" source="qrhTBZqcDBaqj9OsFunk-409" target="qrhTBZqcDBaqj9OsFunk-389">
          <mxGeometry width="160" relative="1" as="geometry">
            <mxPoint x="490" y="1221" as="sourcePoint" />
            <mxPoint x="430" y="1260" as="targetPoint" />
          </mxGeometry>
        </mxCell>
        <mxCell id="qrhTBZqcDBaqj9OsFunk-411" value="" style="endArrow=open;endFill=1;endSize=12;html=1;rounded=0;exitX=0.871;exitY=0.944;exitDx=0;exitDy=0;exitPerimeter=0;fillColor=#f8cecc;strokeColor=#b85450;entryX=0.512;entryY=-0.023;entryDx=0;entryDy=0;entryPerimeter=0;" edge="1" parent="1" source="qrhTBZqcDBaqj9OsFunk-408" target="qrhTBZqcDBaqj9OsFunk-377">
          <mxGeometry width="160" relative="1" as="geometry">
            <mxPoint x="360" y="810" as="sourcePoint" />
            <mxPoint x="290" y="820" as="targetPoint" />
          </mxGeometry>
        </mxCell>
      </root>
    </mxGraphModel>
  </diagram>
</mxfile>
